<svg xmlns="http://www.w3.org/2000/svg" xmlns:xlink="http://www.w3.org/1999/xlink" width="32" height="32" viewBox="0 0 32 32">
  <defs>
    <clipPath id="clip-Custom_Size_1">
      <rect width="32" height="32"/>
    </clipPath>
  </defs>
  <g id="Custom_Size_1" data-name="Custom Size – 1" clip-path="url(#clip-Custom_Size_1)">
    <circle id="Ellipse_1" data-name="Ellipse 1" cx="16" cy="16" r="16" fill="#fff"/>
    <g id="rio" transform="translate(4.997 5.002)">
      <rect id="Rectangle_1" data-name="Rectangle 1" width="5.989" height="5.989" transform="translate(6.768 4.232) rotate(-45)" fill="#002060"/>
      <rect id="Rectangle_2" data-name="Rectangle 2" width="5.989" height="5.989" transform="translate(6.768 17.763) rotate(-45)" fill="#002060"/>
      <rect id="Rectangle_3" data-name="Rectangle 3" width="5.989" height="5.989" transform="translate(13.533 11.031) rotate(-45)" fill="#002060"/>
      <path id="Path_8" data-name="Path 8" d="M994.84,656.616l2.982-2.982,2.982,2.982-2.982,2.982Z" transform="translate(-982.59 -645.589)" fill="#4e87f7"/>
      <rect id="Rectangle_4" data-name="Rectangle 4" width="5.989" height="5.989" transform="translate(0.003 11.031) rotate(-45)" fill="#002060"/>
      <path id="Path_9" data-name="Path 9" d="M306.947,656.616l2.982-2.982,2.982,2.982-2.982,2.982Z" transform="translate(-303.165 -645.589)" fill="#4e87f7"/>
      <path id="Path_10" data-name="Path 10" d="M650.894,312.67l2.982-2.982,2.982,2.982-2.982,2.982Z" transform="translate(-642.878 -305.878)" fill="#4e87f7"/>
      <path id="Path_11" data-name="Path 11" d="M650.894,1000.563l2.982-2.982,2.982,2.982-2.982,2.982Z" transform="translate(-642.878 -985.302)" fill="#4e87f7"/>
    </g>
  </g>
</svg>