<svg xmlns="http://www.w3.org/2000/svg" viewBox="0 0 32 32">
  <defs>
    <clipPath id="a">
      <path d="M0 0h32v32H0z"/>
    </clipPath>
  </defs>
  <g data-name="Custom Size – 1" clip-path="url(#a)">
    <circle data-name="Ellipse 1" cx="16" cy="16" r="16"/>
    <path d="m9.3 24.067 2.758-4.775 2.753-4.758 2.741-4.775.453-.759.2.757.843 3.143-.942 1.631-2.757 4.761-2.741 4.775H15.9l2.758-4.775 1.432-2.472.673 2.472 1.278 4.775H25l-1.278-4.775-1.278-4.758-.336-1.227 2.051-3.548h-2.993l-.1-.353L20.023 5.5l-.135-.5h-2.875l-.067.1-2.69 4.658-2.756 4.776-2.742 4.758L6 24.067Z" fill="#fff"/>
  </g>
</svg>
