<svg xmlns="http://www.w3.org/2000/svg" width="200" height="200">
 <style type="text/css">.st0{fill:#F9D85E;}
	.st1{fill:#EF7730;}</style>

 <g>
  <title>background</title>
  <rect fill="none" id="canvas_background" height="402" width="582" y="-1" x="-1"/>
 </g>
 <g>
  <title>Layer 1</title>
  <g stroke="null" id="Symbol_x5F_luna">
   <path stroke="null" id="svg_1" d="m109.588596,124.986851c-43.449305,-19.422375 -70.55915,-58.858468 -72.148438,-98.544241c-0.065673,-1.668905 -2.062134,-2.509928 -3.309923,-1.406085c-21.002249,18.476224 -34.189402,45.612356 -33.939844,75.83662c0.446577,53.81233 44.132305,97.979178 97.957956,99.004175c43.46244,0.827882 80.738476,-26.097995 95.291629,-64.233131c0.577923,-1.511213 -0.761808,-3.061849 -2.324827,-2.66762c-25.310402,6.360236 -54.219689,4.218256 -81.526553,-7.989718z" class="st0"/>
   <path stroke="null" id="svg_2" d="m198.181572,82.015832l0,0c-0.039404,-0.197115 -0.078808,-0.407371 -0.105077,-0.604485c0,0 0,0 0,0c-0.538519,-2.877876 -1.208385,-5.716328 -1.996461,-8.502217c-0.039404,-0.13141 -0.065673,-0.249679 -0.105077,-0.381089c0,0 0,0 0,0c-0.380904,-1.34038 -0.788077,-2.66762 -1.234654,-3.981718c-0.039404,-0.105128 -0.065673,-0.197115 -0.105077,-0.302243c0,0 0,0 0,0c-0.919423,-2.746466 -1.957058,-5.440367 -3.099769,-8.068564c-0.026269,-0.052564 -0.052538,-0.118269 -0.078808,-0.170833c0,0 0,0 0,0c-0.551654,-1.274675 -1.129577,-2.523069 -1.746904,-3.771462c0,0 0,0 0,0c-0.013135,-0.039423 -0.039404,-0.065705 -0.052538,-0.105128c-0.630462,-1.274675 -1.287192,-2.549351 -1.957058,-3.784603c0,0 0,0 0,0c-0.013135,-0.039423 -0.039404,-0.065705 -0.052538,-0.105128c0,0 0,0 0,0c-0.696135,-1.274675 -1.418538,-2.53621 -2.180346,-3.771462c-0.026269,-0.039423 -0.039404,-0.065705 -0.065673,-0.105128c0,0 0,0 0,0c-0.696135,-1.143266 -1.418538,-2.27339 -2.154077,-3.390374c0,0 0,0 0,0c-0.078808,-0.13141 -0.17075,-0.249679 -0.249558,-0.381089c0,0 0,0 0,0c-1.549885,-2.325954 -3.204846,-4.586203 -4.95175,-6.767607c-0.105077,-0.13141 -0.210154,-0.26282 -0.315231,-0.39423c0,0 0,0 0,0c-0.919423,-1.143266 -1.87825,-2.27339 -2.850211,-3.377233c0,0 0,0 -0.013135,-0.013141l0,0c-0.932558,-1.06442 -1.891385,-2.102557 -2.876481,-3.127554c-0.039404,-0.039423 -0.078808,-0.078846 -0.118212,-0.118269c0,0 0,0 0,0c-0.880019,-0.919869 -1.786308,-1.826597 -2.705731,-2.707043c0,0 0,0 0,0c-0.131346,-0.13141 -0.262692,-0.249679 -0.394038,-0.381089c0,0 0,0 0,0c-0.945692,-0.893587 -1.904519,-1.774033 -2.876481,-2.641338c-0.118212,-0.105128 -0.223288,-0.197115 -0.3415,-0.302243c0,0 0,0 0,0c-0.998231,-0.867305 -2.009596,-1.721469 -3.034096,-2.549351l0,0c-0.091942,-0.078846 -0.197019,-0.144551 -0.288962,-0.223397c0,0 0,0 0,0c-1.090173,-0.867305 -2.193481,-1.721469 -3.323057,-2.549351c-0.026269,-0.013141 -0.039404,-0.026282 -0.065673,-0.052564c0,0 0,0 0,0c-1.142711,-0.827882 -2.298558,-1.642623 -3.467538,-2.431082c-0.013135,-0.013141 -0.026269,-0.026282 -0.039404,-0.026282c0,0 0,0 0,0c-2.351096,-1.576918 -4.781,-3.035567 -7.276576,-4.415371c0,0 0,0 0,0c-0.091942,-0.052564 -0.183885,-0.105128 -0.275827,-0.157692c-1.182115,-0.643908 -2.3905,-1.274675 -3.612019,-1.879161l0,0c-0.157615,-0.078846 -0.315231,-0.157692 -0.472846,-0.236538c0,0 0,0 0,0c-2.534981,-1.235253 -5.135634,-2.365377 -7.788826,-3.390374c-0.157615,-0.052564 -0.302096,-0.118269 -0.459712,-0.170833c0,0 0,0 0,0c-1.366,-0.525639 -2.758269,-1.011856 -4.163673,-1.47179c-0.026269,-0.013141 -0.052538,-0.013141 -0.078808,-0.026282c0,0 0,0 0,0c-1.300327,-0.433652 -2.613788,-0.827882 -3.953519,-1.208971c-0.118212,-0.039423 -0.236423,-0.065705 -0.354635,-0.105128c0,0 0,0 0,0c-1.418538,-0.39423 -2.850211,-0.762177 -4.281884,-1.103843c-0.026269,0 -0.052538,-0.013141 -0.078808,-0.013141c0,0 0,0 0,0c-1.366,-0.315384 -2.745134,-0.604485 -4.137404,-0.867305c-0.091942,-0.013141 -0.183885,-0.026282 -0.262692,-0.052564c0,0 0,0 0,0c-1.444808,-0.26282 -2.90275,-0.499357 -4.373827,-0.709613c-0.013135,0 -0.026269,0 -0.039404,0c0,0 0,0 0,0c-2.285423,-0.315384 -4.58398,-0.551921 -6.908807,-0.709613c0.394038,0.026282 0.761808,0.065705 1.155846,0.105128c0,0 0,0 0,0c0.919423,0.078846 1.799442,0.170833 2.666327,0.275961c0,0 0,0 0.013135,0c0.85375,0.105128 1.694365,0.210256 2.508711,0.328525c0.013135,0 0.026269,0 0.039404,0c0.801211,0.118269 1.589288,0.236538 2.351096,0.367948c0.026269,0 0.039404,0.013141 0.065673,0.013141c0.748673,0.13141 1.484211,0.275961 2.193481,0.420511c0.026269,0.013141 0.065673,0.013141 0.091942,0.026282c0.696135,0.144551 1.379135,0.302243 2.049,0.473075c0.039404,0.013141 0.091942,0.026282 0.131346,0.039423c0.643596,0.157692 1.274058,0.341666 1.891385,0.512498c0.052538,0.013141 0.105077,0.039423 0.17075,0.052564c0.591058,0.183974 1.182115,0.367948 1.746904,0.565062c0.065673,0.026282 0.131346,0.052564 0.197019,0.078846c0.551654,0.197115 1.077038,0.39423 1.602423,0.604485c0.078808,0.039423 0.157615,0.065705 0.236423,0.105128c0.499115,0.210256 0.985096,0.420511 1.457942,0.643908c0.091942,0.052564 0.183885,0.091987 0.288962,0.144551c0.446577,0.223397 0.893154,0.446793 1.326596,0.67019c0.118212,0.065705 0.223288,0.13141 0.328365,0.197115c0.407173,0.223397 0.801211,0.459934 1.182115,0.696472c0.131346,0.078846 0.249558,0.170833 0.380904,0.249679c0.354635,0.236538 0.709269,0.459934 1.050769,0.709613c0.157615,0.105128 0.302096,0.236538 0.446577,0.341666c0.302096,0.223397 0.617327,0.459934 0.906288,0.696472c0.183885,0.144551 0.354635,0.315384 0.538519,0.459934c0.249558,0.223397 0.499115,0.433652 0.748673,0.657049c0.236423,0.223397 0.459712,0.446793 0.683,0.67019c0.183885,0.183974 0.354635,0.354807 0.538519,0.525639c0.394038,0.420511 0.774942,0.854164 1.155846,1.287816c0.551654,0.657049 3.388731,4.283961 4.92548,10.631056c1.851981,7.648053 1.53675,15.611489 3.283654,23.272683c0.288962,1.287816 0.604192,2.549351 0.932558,3.784603c0.091942,0.328525 0.183885,0.657049 0.262692,0.972433c0.262692,0.959292 0.525385,1.892302 0.801211,2.812171c0.078808,0.289102 0.17075,0.565062 0.262692,0.841023c8.997211,28.989011 26.991633,42.760763 51.146189,61.210704c0.827481,-5.164407 1.247788,-10.460223 1.247788,-15.861168c-0.013135,-6.110558 -0.577923,-12.129128 -1.641827,-17.976866z" class="st1"/>
   <path stroke="null" id="svg_3" d="m198.864572,86.207806c-3.533211,-8.160551 -3.533211,-8.160551 -98.207513,-42.379674c-47.665516,-17.22783 -56.505112,-33.864316 -22.013614,-41.380959c1.681231,-0.367948 3.375596,-0.683331 5.083096,-0.959292c5.280115,-0.854164 10.691576,-1.300957 16.208114,-1.300957c50.476324,-0.013141 92.19186,37.412382 98.929917,86.020883" class="st0"/>
  </g>
 </g>
</svg>