<svg xmlns="http://www.w3.org/2000/svg" id="erd" width="32" height="32" viewBox="0 0 32 32">
  <circle id="Ellipse_1" data-name="Ellipse 1" cx="16" cy="16" r="16"/>
  <path id="Path_3_" d="M77.723,17.017a.351.351,0,0,1,0-.534.437.437,0,0,1,.575,0,.351.351,0,0,1,0,.534.491.491,0,0,1-.287.1.319.319,0,0,1-.287-.1" transform="translate(-55.707 -7.033)" fill="#fff" fill-rule="evenodd"/>
  <path id="Path_1" data-name="Path 1" d="M72.9,22.217a.4.4,0,0,1,0-.534.384.384,0,0,1,.534,0,.378.378,0,0,1-.534.534" transform="translate(-51.893 -11.165)" fill="#fff" fill-rule="evenodd"/>
  <path id="Path_2" data-name="Path 2" d="M67.6,27.317a.39.39,0,0,1-.1-.267.432.432,0,0,1,.1-.267.384.384,0,0,1,.534,0,.39.39,0,0,1,.1.267.432.432,0,0,1-.1.267.34.34,0,0,1-.267.1.39.39,0,0,1-.267-.1" transform="translate(-47.681 -15.218)" fill="#fff" fill-rule="evenodd"/>
  <path id="Path_3" data-name="Path 3" d="M62.423,32.417a.331.331,0,0,1-.123-.267.361.361,0,0,1,.123-.267.437.437,0,0,1,.575,0,.351.351,0,0,1,0,.534.454.454,0,0,1-.575,0" transform="translate(-43.549 -19.271)" fill="#fff" fill-rule="evenodd"/>
  <path id="Path_4" data-name="Path 4" d="M57.6,37.517a.315.315,0,0,1-.1-.267.432.432,0,0,1,.1-.267.384.384,0,0,1,.534,0,.315.315,0,0,1,.1.267.39.39,0,0,1-.1.267.315.315,0,0,1-.267.1.267.267,0,0,1-.267-.1" transform="translate(-39.734 -23.324)" fill="#fff" fill-rule="evenodd"/>
  <path id="Path_5" data-name="Path 5" d="M52.1,42.35a.432.432,0,0,1,.1-.267.384.384,0,0,1,.534,0,.34.34,0,0,1,.1.267.432.432,0,0,1-.1.267.39.39,0,0,1-.267.1.432.432,0,0,1-.267-.1A.39.39,0,0,1,52.1,42.35Z" transform="translate(-35.443 -27.377)" fill="#fff" fill-rule="evenodd"/>
  <path id="Path_6" data-name="Path 6" d="M42.2,52.617a.39.39,0,0,1-.1-.267.432.432,0,0,1,.1-.267.384.384,0,0,1,.534,0,.34.34,0,0,1,.1.267.432.432,0,0,1-.1.267.315.315,0,0,1-.267.1.283.283,0,0,1-.267-.1" transform="translate(-27.496 -35.323)" fill="#fff" fill-rule="evenodd"/>
  <path id="Path_7" data-name="Path 7" d="M36.823,57.717a.331.331,0,0,1-.123-.267.361.361,0,0,1,.123-.267.437.437,0,0,1,.575,0,.351.351,0,0,1,0,.534.384.384,0,0,1-.287.1.319.319,0,0,1-.287-.1" transform="translate(-23.205 -39.376)" fill="#fff" fill-rule="evenodd"/>
  <path id="Path_9" data-name="Path 9" d="M26.9,68.017a.315.315,0,0,1-.1-.267.432.432,0,0,1,.1-.267.384.384,0,0,1,.534,0,.432.432,0,0,1,.1.267.39.39,0,0,1-.1.267.34.34,0,0,1-.267.1.315.315,0,0,1-.267-.1" transform="translate(-15.338 -47.561)" fill="#fff" fill-rule="evenodd"/>
  <path id="Path_10" data-name="Path 10" d="M21.523,73.117a.331.331,0,0,1-.123-.267.361.361,0,0,1,.123-.267.41.41,0,0,1,.554,0,.361.361,0,0,1,.123.267.331.331,0,0,1-.123.267.491.491,0,0,1-.287.1.315.315,0,0,1-.267-.1" transform="translate(-11.047 -51.614)" fill="#fff" fill-rule="evenodd"/>
  <path id="Path_11" data-name="Path 11" d="M16.6,78.217a.34.34,0,0,1-.1-.267.432.432,0,0,1,.1-.267.384.384,0,0,1,.534,0,.34.34,0,0,1,.1.267.432.432,0,0,1-.1.267.39.39,0,0,1-.267.1.3.3,0,0,1-.267-.1" transform="translate(-7.153 -55.667)" fill="#fff" fill-rule="evenodd"/>
  <path id="Path_12" data-name="Path 12" d="M17.137,17.017a.4.4,0,0,0,0-.534.384.384,0,0,0-.534,0,.34.34,0,0,0-.1.267.432.432,0,0,0,.1.267.39.39,0,0,0,.267.1.267.267,0,0,0,.267-.1" transform="translate(-7.153 -7.033)" fill="#fff" fill-rule="evenodd"/>
  <path id="Path_13" data-name="Path 13" d="M22,22.217a.351.351,0,0,0,0-.534.437.437,0,0,0-.575,0,.351.351,0,0,0,0,.534.454.454,0,0,0,.575,0" transform="translate(-10.967 -11.165)" fill="#fff" fill-rule="evenodd"/>
  <path id="Path_14" data-name="Path 14" d="M27.437,27.317a.39.39,0,0,0,.1-.267.432.432,0,0,0-.1-.267.384.384,0,0,0-.534,0,.39.39,0,0,0-.1.267.432.432,0,0,0,.1.267.34.34,0,0,0,.267.1.483.483,0,0,0,.267-.1" transform="translate(-15.338 -15.218)" fill="#fff" fill-rule="evenodd"/>
  <path id="Path_15" data-name="Path 15" d="M32.537,32.417a.39.39,0,0,0,.1-.267.432.432,0,0,0-.1-.267.384.384,0,0,0-.534,0,.4.4,0,0,0,0,.534.34.34,0,0,0,.267.1.368.368,0,0,0,.267-.1" transform="translate(-19.391 -19.271)" fill="#fff" fill-rule="evenodd"/>
  <path id="Path_16" data-name="Path 16" d="M37.378,37.517a.331.331,0,0,0,.123-.267.361.361,0,0,0-.123-.267.41.41,0,0,0-.554,0,.351.351,0,0,0,0,.534.384.384,0,0,0,.287.1.267.267,0,0,0,.267-.1" transform="translate(-23.205 -23.324)" fill="#fff" fill-rule="evenodd"/>
  <path id="Path_8" data-name="Path 8" d="M32,62.917a.4.4,0,0,1,0-.534.384.384,0,0,1,.534,0,.39.39,0,0,1,.1.267.432.432,0,0,1-.1.267.34.34,0,0,1-.267.1.432.432,0,0,1-.267-.1" transform="translate(-19.391 -43.508)" fill="#fff" fill-rule="evenodd"/>
  <path id="Path_17" data-name="Path 17" d="M42.839,42.35a.432.432,0,0,0-.1-.267.384.384,0,0,0-.534,0,.34.34,0,0,0-.1.267.432.432,0,0,0,.1.267.39.39,0,0,0,.267.1.432.432,0,0,0,.267-.1A.315.315,0,0,0,42.839,42.35Z" transform="translate(-27.496 -27.377)" fill="#fff" fill-rule="evenodd"/>
  <path id="Path_18" data-name="Path 18" d="M47.837,47.817a.34.34,0,0,0,.1-.267.432.432,0,0,0-.1-.267.384.384,0,0,0-.534,0,.34.34,0,0,0-.1.267.432.432,0,0,0,.1.267.4.4,0,0,0,.534,0" transform="translate(-31.549 -31.509)" fill="#fff" fill-rule="evenodd"/>
  <path id="Path_19" data-name="Path 19" d="M52.778,52.617a.331.331,0,0,0,.123-.267.361.361,0,0,0-.123-.267.41.41,0,0,0-.554,0,.351.351,0,0,0,0,.534.384.384,0,0,0,.287.1.3.3,0,0,0,.267-.1" transform="translate(-35.443 -35.323)" fill="#fff" fill-rule="evenodd"/>
  <path id="Path_20" data-name="Path 20" d="M58.137,57.717a.39.39,0,0,0,.1-.267.432.432,0,0,0-.1-.267.384.384,0,0,0-.534,0,.4.4,0,0,0,0,.534.34.34,0,0,0,.267.1.3.3,0,0,0,.267-.1" transform="translate(-39.734 -39.376)" fill="#fff" fill-rule="evenodd"/>
  <path id="Path_21" data-name="Path 21" d="M63.237,62.917a.4.4,0,0,0,0-.534.384.384,0,0,0-.534,0,.39.39,0,0,0-.1.267.432.432,0,0,0,.1.267.34.34,0,0,0,.267.1.432.432,0,0,0,.267-.1" transform="translate(-43.787 -43.508)" fill="#fff" fill-rule="evenodd"/>
  <path id="Path_22" data-name="Path 22" d="M68.037,68.017a.315.315,0,0,0,.1-.267.432.432,0,0,0-.1-.267.384.384,0,0,0-.534,0,.432.432,0,0,0-.1.267.39.39,0,0,0,.1.267.34.34,0,0,0,.267.1.315.315,0,0,0,.267-.1" transform="translate(-47.602 -47.561)" fill="#fff" fill-rule="evenodd"/>
  <path id="Path_23" data-name="Path 23" d="M73.437,73.117a.315.315,0,0,0,.1-.267.432.432,0,0,0-.1-.267.384.384,0,0,0-.534,0,.34.34,0,0,0-.1.267.352.352,0,0,0,.37.37.315.315,0,0,0,.267-.1" transform="translate(-51.893 -51.614)" fill="#fff" fill-rule="evenodd"/>
  <path id="Path_24" data-name="Path 24" d="M78.378,78.217a.351.351,0,0,0,0-.534.41.41,0,0,0-.554,0,.351.351,0,0,0,0,.534.491.491,0,0,0,.287.1.3.3,0,0,0,.267-.1" transform="translate(-55.787 -55.667)" fill="#fff" fill-rule="evenodd"/>
  <path id="Fill-9_1_" d="M23.038,4.371A6.47,6.47,0,0,1,26.57,3.324,6.4,6.4,0,0,1,30.1,4.371L32.36,2.112A9.364,9.364,0,0,0,26.57.1,9.223,9.223,0,0,0,20.8,2.112Z" transform="translate(-10.57 5.9)" fill="#fff" fill-rule="evenodd"/>
  <path id="Fill-10_1_" d="M4.409,30.161a6.242,6.242,0,0,1-1.068-3.511,6.148,6.148,0,0,1,1.068-3.511L2.171,20.9a9.391,9.391,0,0,0,.021,11.54Z" transform="translate(5.8 -10.629)" fill="#fff" fill-rule="evenodd"/>
  <path id="Fill-11_1_" d="M30.022,76.9a6.348,6.348,0,0,1-3.511,1.109,6.1,6.1,0,0,1-3.552-1.088L20.7,79.159a9.1,9.1,0,0,0,5.811,2.012,9.415,9.415,0,0,0,5.749-2.012Z" transform="translate(-10.491 -55.13)" fill="#fff" fill-rule="evenodd"/>
  <path id="Fill-12_1_" d="M76.8,22.879a6.186,6.186,0,0,1,1.068,3.573A6.272,6.272,0,0,1,76.8,29.9l2.259,2.238a9.278,9.278,0,0,0,0-11.54Z" transform="translate(-55.071 -10.391)" fill="#fff" fill-rule="evenodd"/>
  <path id="Fill-15_1_" d="M82.181,80.3A1.581,1.581,0,1,1,80.6,81.881,1.582,1.582,0,0,1,82.181,80.3" transform="translate(-58.091 -57.832)" fill="#fff" fill-rule="evenodd"/>
  <path id="Fill-16_1_" d="M3.661,80.3A1.581,1.581,0,1,1,2.1,81.881,1.564,1.564,0,0,1,3.661,80.3" transform="translate(4.29 -57.832)" fill="#fff" fill-rule="evenodd"/>
  <path id="Fill-17_1_" d="M82.361,1.8A1.581,1.581,0,1,1,80.8,3.381,1.564,1.564,0,0,1,82.361,1.8" transform="translate(-58.25 4.549)" fill="#fff" fill-rule="evenodd"/>
  <path id="Fill-18_1_" d="M3.481,1.8a1.561,1.561,0,1,1,0,3.121,1.561,1.561,0,1,1,0-3.121" transform="translate(4.449 4.549)" fill="#fff" fill-rule="evenodd"/>
</svg>