<svg xmlns="http://www.w3.org/2000/svg" viewBox="0 0 32 32">
  <defs>
    <clipPath id="a">
      <path d="M0 0h32v32H0z"/>
    </clipPath>
  </defs>
  <g data-name="Custom Size – 1" clip-path="url(#a)">
    <path data-name="Path 6" d="M16 32A16 16 0 1 0 0 16a16 16 0 0 0 16 16Z" fill="#e7efff"/>
    <path data-name="Path 9" d="M5.689 10.161 16 16.112v3.97l-6.874-3.97v7.935l-3.437-1.984Z" fill="#2891f9"/>
    <path data-name="Path 10" d="M9.126 24.047v-7.935l3.433 1.984v3.967Z" fill="#2bbdf7"/>
    <path data-name="Path 11" d="m5.689 10.162 3.437-1.984 10.311 5.951L16 16.113Z" fill="#2b6def"/>
    <path data-name="Path 12" d="m16 16.113 3.437-1.984v3.963L16 20.08Z" fill="#2bbdf7"/>
    <path data-name="Path 13" d="M19.437 10.161v11.9l3.433 1.986v-11.9Z" fill="#2891f9"/>
    <path data-name="Path 14" d="m26.311 10.161-3.437 1.984v11.9l3.437-1.984Z" fill="#2bbdf7"/>
    <path data-name="Path 15" d="m22.87 8.178 3.437 1.984-3.437 1.983-3.437-1.984Z" fill="#2b6def"/>
  </g>
</svg>
