<svg xmlns="http://www.w3.org/2000/svg" viewBox="0 0 32 32">
  <defs>
    <clipPath id="a">
      <path d="M0 0h32v32H0z"/>
    </clipPath>
  </defs>
  <g data-name="Custom Size – 1" clip-path="url(#a)">
    <circle data-name="Ellipse 1" cx="16" cy="16" r="16" fill="#fff"/>
    <path data-name="Rectangle 1" fill="#002060" d="M11.765 9.234 16 4.999l4.235 4.235L16 13.469z"/>
    <path data-name="Rectangle 2" fill="#002060" d="M11.765 22.765 16 18.53l4.235 4.235L16 27z"/>
    <path data-name="Rectangle 3" fill="#002060" d="m18.53 16.033 4.235-4.235L27 16.033l-4.235 4.235z"/>
    <path data-name="Path 8" d="m17.247 16.029 2.982-2.982 2.982 2.982-2.982 2.982Z" fill="#4e87f7"/>
    <path data-name="Rectangle 4" fill="#002060" d="m5 16.033 4.235-4.235 4.235 4.235-4.235 4.235z"/>
    <path data-name="Path 9" d="m8.779 16.029 2.982-2.982 2.982 2.982-2.982 2.982Z" fill="#4e87f7"/>
    <path data-name="Path 10" d="m13.013 11.794 2.982-2.982 2.982 2.982-2.982 2.982Z" fill="#4e87f7"/>
    <path data-name="Path 11" d="m13.013 20.263 2.982-2.982 2.982 2.982-2.982 2.982Z" fill="#4e87f7"/>
  </g>
</svg>
