<svg xmlns="http://www.w3.org/2000/svg" xmlns:xlink="http://www.w3.org/1999/xlink" version="1.1" id="Layer_1" x="0px" y="0px" viewBox="0 0 234.3 234.3" style="enable-background:new 0 0 234.3 234.3;" xml:space="preserve">
<style type="text/css">
	.st0{fill:#101010;}
	.st1{fill:#FFFFFF;}
</style>
<g id="Token">
	<circle class="st0" cx="117.1" cy="117.1" r="112.5"/>
</g>
<g>
	<path class="st1" d="M87.9,117.2c0,14.6-9.6,26-24.9,26c-15.2,0-24.9-11.4-24.9-26S47.7,91.1,63,91.1S87.9,102.6,87.9,117.2z    M78.6,117.2c0-9.9-5.8-17.2-15.5-17.2s-15.5,7.4-15.5,17.2c0,9.9,5.8,17.2,15.5,17.2C72.8,134.3,78.6,127,78.6,117.2z"/>
	<path class="st1" d="M144.5,141.9h-8.7v-35l-12.8,35h-8.3L102,107v35h-8.4V92.3h11.7l13.8,37.9l13.8-37.9h11.7L144.5,141.9   L144.5,141.9z"/>
	<path class="st1" d="M196.2,115.3v26.6h-8.6v-5.7c-1.8,3.2-6.4,6.9-14.5,6.9c-13.9,0-22.8-11.1-22.8-25.7   c0-13.6,7.7-26.4,24.3-26.4c11.7,0,20.4,6.3,21.6,17.7h-9.4c-0.6-5.6-5.9-9-12.5-9c-10.1,0-14.8,7.9-14.8,17.4   c0,10.2,5.4,17.3,15,17.3c6.7,0,12-3.4,12.8-10.6H173v-8.6L196.2,115.3L196.2,115.3z"/>
</g>
</svg>