<svg xmlns="http://www.w3.org/2000/svg" xmlns:xlink="http://www.w3.org/1999/xlink" version="1.1" id="Layer_1" x="0" y="0" viewBox="0 0 1000 1000" xml:space="preserve">
  <defs>
    <path id="SVGID_5_" class="st2" d="M386.3 460.8c-30.5 0-55.3-24.8-55.3-55.4s24.8-55.4 55.3-55.4 55.3 24.8 55.3 55.4c0 30.6-24.8 55.4-55.3 55.4z"/>
    <path id="SVGID_6_" class="st2" d="M613.7 460.8c-30.5 0-55.3-24.8-55.3-55.4s24.8-55.4 55.3-55.4 55.3 24.8 55.3 55.4-24.8 55.4-55.3 55.4z"/>
    <path id="SVGID_7_" class="st2" d="M386.3 650c-30.5 0-55.3-24.8-55.3-55.4 0-30.6 24.8-55.4 55.3-55.4s55.3 24.8 55.3 55.4c0 30.6-24.8 55.4-55.3 55.4z"/>
  </defs>
  <style>
    .st2{fill:#211f6d}
  </style>
  <path id="SVGID_1_" d="M500 0c276.1 0 500 223.9 500 500s-223.9 500-500 500S0 776.1 0 500 223.9 0 500 0z" fill-rule="evenodd" clip-rule="evenodd" fill="#211f6d"/>
  <path id="SVGID_3_" d="M329 259h333c44.2 0 80 35.8 80 80v333c0 38.7-31.3 70-70 70H329c-38.7 0-70-31.3-70-70V329c0-38.7 31.3-70 70-70z" fill-rule="evenodd" clip-rule="evenodd" fill="#fff"/>
  <use class="st2" xlink:href="#SVGID_5_"/>
  <use class="st2" xlink:href="#SVGID_6_"/>
  <use class="st2" xlink:href="#SVGID_7_"/>
  <path id="SVGID_8_" class="st2" d="M613.7 650c-30.5 0-55.3-24.8-55.3-55.4 0-30.6 24.8-55.4 55.3-55.4S669 564 669 594.6c0 30.6-24.8 55.4-55.3 55.4z"/>
  <defs>
    <use id="SVGID_2_" xlink:href="#SVGID_5_"/>
  </defs>
  <clipPath id="SVGID_4_">
    <use xlink:href="#SVGID_2_" overflow="visible"/>
  </clipPath>
  <defs>
    <use id="SVGID_9_" xlink:href="#SVGID_5_"/>
  </defs>
  <defs>
    <use id="SVGID_10_" xlink:href="#SVGID_6_"/>
  </defs>
  <clipPath id="SVGID_11_">
    <use xlink:href="#SVGID_9_" overflow="visible"/>
  </clipPath>
  <clipPath id="SVGID_12_" clip-path="url(#SVGID_11_)">
    <use xlink:href="#SVGID_10_" overflow="visible"/>
  </clipPath>
  <defs>
    <use id="SVGID_13_" xlink:href="#SVGID_5_"/>
  </defs>
  <defs>
    <use id="SVGID_14_" xlink:href="#SVGID_6_"/>
  </defs>
  <defs>
    <use id="SVGID_15_" xlink:href="#SVGID_7_"/>
  </defs>
  <clipPath id="SVGID_16_">
    <use xlink:href="#SVGID_13_" overflow="visible"/>
  </clipPath>
  <clipPath id="SVGID_17_" clip-path="url(#SVGID_16_)">
    <use xlink:href="#SVGID_14_" overflow="visible"/>
  </clipPath>
  <clipPath id="SVGID_18_" clip-path="url(#SVGID_17_)">
    <use xlink:href="#SVGID_15_" overflow="visible"/>
  </clipPath>
</svg>
