<svg xmlns="http://www.w3.org/2000/svg" xmlns:xlink="http://www.w3.org/1999/xlink" width="32" height="32" viewBox="0 0 32 32">
  <defs>
    <clipPath id="clip-Custom_Size_1">
      <rect width="32" height="32"/>
    </clipPath>
  </defs>
  <g id="Custom_Size_1" data-name="Custom Size – 1" clip-path="url(#clip-Custom_Size_1)">
    <g id="om" transform="translate(-68 -161)">
      <circle id="Ellipse_1" data-name="Ellipse 1" cx="16" cy="16" r="16" transform="translate(68 161)" fill="#eb1a6b"/>
      <g id="om-2" data-name="om" transform="translate(71 165)">
        <path id="Path_1" data-name="Path 1" d="M247.406,490.081c.4.251.6.4.822.528a3.287,3.287,0,0,0,3.8.075,2.5,2.5,0,0,0,.623-3.117,2.869,2.869,0,0,0-3.146-1.86,3.08,3.08,0,0,0-1.785,1.006c-.907,1.156-1.219,2.64-2.721,3.419-.2.1-.142.679-.142,1.031.028,2.514-2.041,4.45-5.017,4.7-2.352.2-5.867-1.483-5.838-3.821a20.582,20.582,0,0,0,3.77,1.458,7.7,7.7,0,0,0,3.543-.2,2.544,2.544,0,0,0,1.956-2.766c-.17-.955-.6-1.207-2.778-1.534-.142-.553-.283-1.156-.425-1.835.227-.025.4-.075.567-.075.992-.075,2.069-.1,2.154-1.332a2.079,2.079,0,0,0-2.182-2.036,18.279,18.279,0,0,0-3.656,1.081c-.255-.352-.68-.93-1.077-1.508a5.3,5.3,0,0,1,6.632-.83c1.9,1.207,2.069,3.143.4,5.405.482.4.964.8,1.644,1.383.227-.6.34-1.031.51-1.433a8.018,8.018,0,0,1,.765-1.735,4.263,4.263,0,0,1,7.7.625,4.95,4.95,0,0,1,0,4.252,3.88,3.88,0,0,1-3.451,1.937A2.763,2.763,0,0,1,247.406,490.081Z" transform="translate(-231.304 -475.009)"/>
        <path id="Path_2" data-name="Path 2" d="M735.316,403.885a6.332,6.332,0,0,0,7.227-.025c.425.6.794,1.106,1.162,1.609C740.956,407.38,736.478,406.4,735.316,403.885Z" transform="translate(-724.684 -398.443)"/>
        <path id="Path_3" data-name="Path 3" d="M853.807,228.072c.468-.572.832-.988,1.274-1.508.52.546.858.91,1.274,1.378-.39.442-.754.832-1.222,1.326C854.691,228.878,854.3,228.514,853.807,228.072Z" transform="translate(-841.299 -223.954)"/>
      </g>
    </g>
  </g>
</svg>