<svg xmlns="http://www.w3.org/2000/svg" data-name="Layer 1" viewBox="0 0 200 200">
  <circle cx="100" cy="100" r="100"/>
  <g data-name="图层 2">
    <g data-name="图层 1-2" fill="#fff">
      <path d="M177.53 110.72a15.39 15.39 0 0 1-21.53 3.15 15.39 15.39 0 0 1-3.15-21.53 15.39 15.39 0 0 1 21.53-3.15 15.39 15.39 0 0 1 3.15 3.15l4.33-3.1a20.75 20.75 0 0 0-29-4.43 20.75 20.75 0 0 0-4.43 29 20.75 20.75 0 0 0 29 4.43 20.75 20.75 0 0 0 4.43-4.43ZM125.62 77.63l-3 6.24-17.79 38.39h5.8l4.11-8.89h21.64l4.12 8.89h5.83l-17.8-38.39Zm-8.35 30.46 8.35-18 8.33 18h-16.68ZM39.24 101.57 24.25 86.58l-.41-.41-5.31-5.32v41.4h5.31V93.7l11.64 11.64 3.76 3.76 3.75-3.76L54.63 93.7v28.55h5.31V80.86l-5.31 5.31-15.39 15.4zM85.95 80.86a20.75 20.75 0 0 0-20.75 20.75 20.75 20.75 0 0 0 20.75 20.75 20.75 20.75 0 0 0 20.75-20.75 20.75 20.75 0 0 0-20.75-20.75Zm0 36.1a15.4 15.4 0 0 1-15.42-15.39 15.4 15.4 0 0 1 15.39-15.42 15.4 15.4 0 0 1 15.41 15.39A15.4 15.4 0 0 1 85.95 117Z"/>
      <circle cx="94.72" cy="92.77" r="1.44"/>
      <circle cx="94.72" cy="110.3" r="1.44"/>
      <circle cx="77.18" cy="92.77" r="1.44"/>
      <circle cx="73.53" cy="101.54" r=".73"/>
      <circle cx="85.95" cy="113.98" r=".73"/>
      <circle cx="98.36" cy="101.54" r=".73"/>
      <circle cx="85.95" cy="89.15" r=".73"/>
      <circle cx="85.95" cy="92.77" r=".73"/>
      <circle cx="77.18" cy="110.3" r="1.44"/>
      <circle cx="85.95" cy="110.3" r="1.44"/>
      <path d="M94.45 92.77h.53v17.54h-.53zM77.18 92.77h17.54"/>
      <path d="M77.18 92.68h17.54v.18H77.18z"/>
      <path d="m85.894 92.812.16-.08 8.755 17.536-.16.08z"/>
      <path d="m77.111 110.266 8.772-17.54.16.081-8.77 17.539z"/>
      <path d="M76.91 92.77h.53v17.54h-.53zM94.72 110.3H77.18"/>
      <path d="M77.18 110.21h17.54v.18H77.18z"/>
      <path d="m76.955 92.896.474-.237 8.771 17.539-.474.237z"/>
      <path d="m85.718 110.19 8.772-17.539.474.237-8.771 17.54zM73.456 101.523l3.634-8.777.166.069-3.634 8.777z"/>
      <path d="m77.1 110.35-3.64-8.76.16-.08 3.65 8.76-.17.08zM85.86 110.3h.18v3.66h-.18zM85.86 89.12h.18v3.66h-.18z"/>
      <path d="m77.157 92.686 8.769-3.63.068.166-8.768 3.63z"/>
      <path d="m85.905 89.229.07-.166 8.777 3.634-.07.166z"/>
      <path d="m94.639 92.803.166-.07 3.637 8.777-.166.069z"/>
      <path d="m94.627 110.308 3.642-8.796.166.069-3.642 8.796z"/>
      <path d="m85.902 113.904 8.799-3.662.069.166-8.798 3.662z"/>
      <path d="m85.91 114.05-8.79-3.66.06-.16 8.8 3.66-.07.16z"/>
    </g>
  </g>
</svg>
