<svg xmlns="http://www.w3.org/2000/svg" xmlns:xlink="http://www.w3.org/1999/xlink" width="32" height="32" viewBox="0 0 32 32">
  <defs>
    <clipPath id="clip-Custom_Size_1">
      <rect width="32" height="32"/>
    </clipPath>
  </defs>
  <g id="Custom_Size_1" data-name="Custom Size – 1" clip-path="url(#clip-Custom_Size_1)">
    <g id="klaytn">
      <circle id="Ellipse_1" data-name="Ellipse 1" cx="16" cy="16" r="16" fill="#4f473c"/>
      <g id="logo" transform="translate(6 6)">
        <path id="패스_161" data-name="패스 161" d="M14.2,10.989l6.814,6.889a9.878,9.878,0,0,0,2.667-6.889A10.365,10.365,0,0,0,21.014,4.1Z" transform="translate(-3.682 -1.063)" fill="#fff"/>
        <path id="패스_162" data-name="패스 162" d="M11.14,14.1,4.4,20.84l6.74,2.815,6.74-2.815Z" transform="translate(-1.141 -3.656)" fill="#fff"/>
        <path id="패스_163" data-name="패스 163" d="M11.152,9.7l6.963-7.037L11.67,0,5.3,15.629Z" transform="translate(-1.374)" fill="#fff"/>
        <path id="패스_164" data-name="패스 164" d="M0,10.081A10.034,10.034,0,0,0,2.667,16.9L9.407.6Z" transform="translate(0 -0.156)" fill="#fff"/>
      </g>
    </g>
  </g>
</svg>