<svg xmlns="http://www.w3.org/2000/svg" xmlns:xlink="http://www.w3.org/1999/xlink" viewBox="0 0 77 76.03">
  <defs>
    <linearGradient id="c" x1="18.45" y1="55.83" x2="77" y2="55.83" xlink:href="#a">
      <stop offset=".38" stop-opacity="0"/>
      <stop offset="1" stop-opacity="0"/>
    </linearGradient>
    <linearGradient id="d" x1="18.45" y1="55.67" x2="76.6" y2="55.67" xlink:href="#a">
      <stop offset=".38" stop-opacity=".06"/>
      <stop offset="1" stop-opacity="0"/>
    </linearGradient>
    <linearGradient id="e" x1="18.45" y1="55.53" x2="76.21" y2="55.53" xlink:href="#a">
      <stop offset=".38" stop-opacity=".13"/>
      <stop offset="1" stop-opacity="0"/>
    </linearGradient>
    <linearGradient id="f" x1="18.45" y1="55.38" x2="75.81" y2="55.38" xlink:href="#a">
      <stop offset=".38" stop-opacity=".2"/>
      <stop offset="1" stop-opacity="0"/>
    </linearGradient>
    <linearGradient id="g" x1="18.45" y1="55.24" x2="75.42" y2="55.24" xlink:href="#a">
      <stop offset=".38" stop-opacity=".25"/>
      <stop offset="1" stop-opacity="0"/>
    </linearGradient>
    <linearGradient id="h" x1="18.45" y1="55.09" x2="75.02" y2="55.09" xlink:href="#a">
      <stop offset=".38" stop-opacity=".3"/>
      <stop offset="1" stop-opacity="0"/>
    </linearGradient>
    <linearGradient id="i" x1="18.45" y1="54.95" x2="74.63" y2="54.95" xlink:href="#a">
      <stop offset=".38" stop-opacity=".38"/>
      <stop offset="1" stop-opacity="0"/>
    </linearGradient>
    <linearGradient id="j" x1="18.45" y1="54.8" x2="74.23" y2="54.8" xlink:href="#a">
      <stop offset=".38" stop-opacity=".44"/>
      <stop offset="1" stop-opacity="0"/>
    </linearGradient>
    <linearGradient id="k" x1="18.45" y1="54.66" x2="73.84" y2="54.66" xlink:href="#a">
      <stop offset=".38" stop-opacity=".5"/>
      <stop offset="1" stop-opacity="0"/>
    </linearGradient>
    <linearGradient id="l" x1="18.45" y1="54.52" x2="73.44" y2="54.52" xlink:href="#a">
      <stop offset=".38" stop-opacity=".56"/>
      <stop offset="1" stop-opacity="0"/>
    </linearGradient>
    <linearGradient id="m" x1="18.45" y1="54.37" x2="73.05" y2="54.37" xlink:href="#a">
      <stop offset=".38" stop-opacity=".63"/>
      <stop offset="1" stop-opacity="0"/>
    </linearGradient>
    <linearGradient id="n" x1="18.45" y1="54.23" x2="72.65" y2="54.23" xlink:href="#a">
      <stop offset=".38" stop-opacity=".7"/>
      <stop offset="1" stop-opacity="0"/>
    </linearGradient>
    <linearGradient id="o" x1="18.45" y1="54.09" x2="72.25" y2="54.09" xlink:href="#a">
      <stop offset=".38" stop-opacity=".75"/>
      <stop offset="1" stop-opacity="0"/>
    </linearGradient>
    <linearGradient id="p" x1="18.45" y1="53.95" x2="71.86" y2="53.95" xlink:href="#a">
      <stop offset=".38" stop-opacity=".8"/>
      <stop offset="1" stop-opacity="0"/>
    </linearGradient>
    <linearGradient id="q" x1="18.45" y1="53.81" x2="71.46" y2="53.81" xlink:href="#a">
      <stop offset=".38" stop-opacity=".88"/>
      <stop offset="1" stop-opacity="0"/>
    </linearGradient>
    <linearGradient id="r" x1="18.45" y1="53.68" x2="71.07" y2="53.68" xlink:href="#a">
      <stop offset=".38" stop-opacity=".94"/>
      <stop offset="1" stop-opacity="0"/>
    </linearGradient>
    <linearGradient id="s" x1="18.45" y1="53.55" x2="70.67" y2="53.55" xlink:href="#a">
      <stop offset=".38"/>
      <stop offset="1" stop-opacity="0"/>
    </linearGradient>
    <linearGradient id="t" x1="18.45" y1="65.76" x2="70.67" y2="65.76" xlink:href="#a">
      <stop offset="0" stop-color="#600000"/>
      <stop offset=".33" stop-color="#630000"/>
      <stop offset=".59" stop-color="#6d0000"/>
      <stop offset=".83" stop-color="#7e0000"/>
      <stop offset="1" stop-color="#8f0000"/>
    </linearGradient>
    <linearGradient id="u" x1="44.56" y1="61.05" x2="44.56" y2="70.48" xlink:href="#a">
      <stop offset=".35" stop-color="#bf1010"/>
      <stop offset=".65" stop-color="#bd1010"/>
      <stop offset=".75" stop-color="#b60f0f"/>
      <stop offset=".83" stop-color="#ab0d0d"/>
      <stop offset=".89" stop-color="#9a0a0a"/>
      <stop offset=".94" stop-color="#840606"/>
      <stop offset=".99" stop-color="#690202"/>
      <stop offset="1" stop-color="#600000"/>
    </linearGradient>
    <linearGradient id="v" x1="18.45" y1="49.91" x2="70.67" y2="49.91" xlink:href="#a">
      <stop offset="0" stop-color="#bf1010"/>
      <stop offset=".02" stop-color="#c11212"/>
      <stop offset=".24" stop-color="#d22323"/>
      <stop offset=".49" stop-color="#dc2d2d"/>
      <stop offset=".79" stop-color="#df3030"/>
      <stop offset=".84" stop-color="#dc2e2e"/>
      <stop offset=".88" stop-color="#d22626"/>
      <stop offset=".92" stop-color="#c11919"/>
      <stop offset=".95" stop-color="#a90808"/>
      <stop offset=".97" stop-color="#9f0000"/>
      <stop offset="1" stop-color="#df3030"/>
    </linearGradient>
    <linearGradient id="b" x1="18.45" y1="44.57" x2="70.67" y2="44.57" xlink:href="#a">
      <stop offset="0" stop-color="#dfdfdf"/>
      <stop offset=".02" stop-color="#e1e1e1"/>
      <stop offset=".24" stop-color="#f2f2f2"/>
      <stop offset=".49" stop-color="#fcfcfc"/>
      <stop offset=".79" stop-color="#fff"/>
      <stop offset=".84" stop-color="#fcfcfc"/>
      <stop offset=".88" stop-color="#f2f2f2"/>
      <stop offset=".92" stop-color="#e1e1e1"/>
      <stop offset=".95" stop-color="#c9c9c9"/>
      <stop offset=".97" stop-color="#bfbfbf"/>
      <stop offset="1" stop-color="#fff"/>
    </linearGradient>
    <linearGradient id="w" y1="57.96" y2="57.96" xlink:href="#b"/>
    <linearGradient id="x" y1="63.31" y2="63.31" xlink:href="#b"/>
    <linearGradient id="y" x1="18.45" y1="43.71" x2="70.67" y2="43.71" xlink:href="#a">
      <stop offset="0" stop-color="#00209f"/>
      <stop offset=".02" stop-color="#0222a1"/>
      <stop offset=".24" stop-color="#1333b2"/>
      <stop offset=".49" stop-color="#1d3dbc"/>
      <stop offset=".79" stop-color="#2040bf"/>
      <stop offset=".84" stop-color="#1e3dbc"/>
      <stop offset=".88" stop-color="#1933b2"/>
      <stop offset=".92" stop-color="#1122a1"/>
      <stop offset=".95" stop-color="#050a89"/>
      <stop offset=".97" stop-color="#00007f"/>
      <stop offset="1" stop-color="#2040bf"/>
    </linearGradient>
    <linearGradient id="z" y1="37.1" y2="37.1" xlink:href="#b"/>
    <linearGradient id="A" y1="46.35" y2="46.35" xlink:href="#b"/>
    <linearGradient id="B" y1="50.08" y2="50.08" xlink:href="#b"/>
    <linearGradient id="C" y1="44.58" y2="44.58" xlink:href="#b"/>
    <linearGradient id="D" y1="48.31" y2="48.31" xlink:href="#b"/>
    <linearGradient id="E" y1="40.84" y2="40.84" xlink:href="#b"/>
    <linearGradient id="F" y1="49.78" x2="70.68" y2="49.78" xlink:href="#b"/>
    <linearGradient id="G" y1="42.61" y2="42.61" xlink:href="#b"/>
    <linearGradient id="H" y1="48.08" y2="48.08" xlink:href="#b"/>
    <linearGradient id="I" y1="51.82" y2="51.82" xlink:href="#b"/>
    <linearGradient id="J" y1="38.87" y2="38.87" xlink:href="#b"/>
    <linearGradient id="K" y1="44.34" y2="44.34" xlink:href="#b"/>
    <linearGradient id="L" y1="52.05" y2="52.05" xlink:href="#b"/>
    <linearGradient id="M" y1="44.69" x2="70.68" y2="44.69" xlink:href="#b"/>
    <linearGradient id="N" y1="40.95" x2="70.68" y2="40.95" xlink:href="#b"/>
    <linearGradient id="O" y1="52.17" x2="70.66" y2="52.17" xlink:href="#b"/>
    <linearGradient id="P" y1="40.61" y2="40.61" xlink:href="#b"/>
    <linearGradient id="Q" y1="36.87" y2="36.87" xlink:href="#b"/>
    <linearGradient id="R" y1="48.43" y2="48.43" xlink:href="#b"/>
    <linearGradient id="S" y1="39.04" y2="39.04" xlink:href="#b"/>
    <linearGradient id="T" y1="42.78" y2="42.78" xlink:href="#b"/>
    <linearGradient id="U" y1="50.25" y2="50.25" xlink:href="#b"/>
    <linearGradient id="V" y1="46.52" y2="46.52" xlink:href="#b"/>
    <linearGradient id="W" y1="37.21" x2="70.68" y2="37.21" xlink:href="#b"/>
    <linearGradient id="X" y1="46.04" x2="70.68" y2="46.04" xlink:href="#b"/>
    <linearGradient id="Z" x1="18.46" y1="45.1" y2="45.1" xlink:href="#b"/>
    <linearGradient id="aa" x1="18.46" y1="45.11" y2="45.11" xlink:href="#b"/>
    <linearGradient id="ab" x1="18.46" y1="48.84" y2="48.84" xlink:href="#b"/>
    <linearGradient id="ac" y1="39.76" x2="70.68" y2="39.76" xlink:href="#b"/>
    <linearGradient id="ad" x1="18.46" y1="37.62" y2="37.62" xlink:href="#b"/>
    <linearGradient id="ae" y1="36.03" x2="70.68" y2="36.03" xlink:href="#b"/>
    <linearGradient id="af" y1="42.94" y2="42.94" xlink:href="#b"/>
    <linearGradient id="ag" y1="39.2" y2="39.2" xlink:href="#b"/>
    <linearGradient id="ah" y1="50.42" y2="50.42" xlink:href="#b"/>
    <linearGradient id="ai" y1="35.46" y2="35.46" xlink:href="#b"/>
    <linearGradient id="aj" y1="46.68" y2="46.68" xlink:href="#b"/>
    <linearGradient id="ak" y1="43.5" x2="70.68" y2="43.5" xlink:href="#b"/>
    <linearGradient id="am" y1="38.57" x2="70.68" y2="38.57" xlink:href="#b"/>
    <linearGradient id="an" y1="47.71" y2="47.71" xlink:href="#b"/>
    <linearGradient id="ao" y1="47.24" x2="70.68" y2="47.24" xlink:href="#b"/>
    <linearGradient id="ap" y1="40.23" y2="40.23" xlink:href="#b"/>
    <linearGradient id="aq" y1="51.45" y2="51.45" xlink:href="#b"/>
    <linearGradient id="ar" y1="36.49" x2="70.68" y2="36.49" xlink:href="#b"/>
    <linearGradient id="as" y1="43.97" y2="43.97" xlink:href="#b"/>
    <linearGradient id="at" y1="50.98" x2="70.68" y2="50.98" xlink:href="#b"/>
    <linearGradient id="au" y1="49.36" y2="49.36" xlink:href="#b"/>
    <linearGradient id="av" y1="38.14" y2="38.14" xlink:href="#b"/>
    <linearGradient id="aw" y1="45.62" y2="45.62" xlink:href="#b"/>
    <linearGradient id="ax" y1="41.88" y2="41.88" xlink:href="#b"/>
    <path id="Y" d="m40.06 44.1-.24.77-.77.1.63.38-.24.77.62-.54.63.38-.24-.7.62-.54-.77.1-.24-.7z"/>
    <path id="al" d="m31.16 37.57-.24.76-.77.06.62.4-.24.76.63-.5.62.4-.24-.72.63-.5-.78.07z"/>
    <linearGradient id="a" gradientUnits="userSpaceOnUse"/>
  </defs>
  <path d="M31.16 53.2c1.67 6.17 7.65 10.88 10.67 10.68.1 0 11.45-2.12 17.66-12.5 4.84-8.08 3.2-15.88-3.4-16-2.36.13-28.1 6.08-24.94 17.82M55.5 13.6a28.84 28.84 0 0 0-30.41-4.4 17.27 17.27 0 0 0-1.83.9l-1.2.66h.1a13.45 13.45 0 0 0-3 2.88c-8.28 11 19.48 18.9 34.32 18.92 6.8 4.94 8.7-13.77 2.03-18.96z" fill="#0e3ca5"/>
  <path d="M26.75 13.8c-3.8 5.73-16.5 9.77-18.6 9.2l.27-.52a30.71 30.71 0 0 1 2.47-4 30.28 30.28 0 0 1 3-3.55 31.16 31.16 0 0 1 3.54-3 32.84 32.84 0 0 1 2.43-1.6 9 9 0 0 1 4.2-1.12c5.66.1 2.7 4.65 2.67 4.7m-3.1 40.4c.27 1.8 0 8.92-.38 9.52-.32 0-1 .06-2.9-1a29.48 29.48 0 0 1-2.91-1.88 30.54 30.54 0 0 1-6.58-6.59 30.71 30.71 0 0 1-2.47-4A29.52 29.52 0 0 1 6.55 46a30.18 30.18 0 0 1-1.15-4.68 30.58 30.58 0 0 1 0-9.86 30.18 30.18 0 0 1 1.15-4.68l.32-.9c2.2 2.92 4.73 5.56 6.9 8.5s4.88 7.38 5.45 8.36c3.57 6.06 4.14 9.8 4.42 11.6m42.2-17.94a30.28 30.28 0 0 1-2.12 11.17c-3.58 3.85-27.73-5.63-28-5.73C32.44 40.4 22.38 36 21.47 29.07c-1.3-10 18.9-16.9 27.77-17.16 1.06 0 4.3 0 6.2 1.6a30.35 30.35 0 0 1 10.4 22.9M49.48 63.37c-2.63 1.23-5.53.33-4.78-2.23 1.45-4.93 14.07-10 16.86-10.25.34 0 .5.2.34.47a30.75 30.75 0 0 1-12.42 12" fill="#5493f7"/>
  <g opacity=".3">
    <path d="M20.4 35.62a1.83 1.83 0 0 0-2 1.66v30.9a2.13 2.13 0 0 0 2 2.26c28.53.17 56.2 8.16 56.2 4.14V40.2c.02-4.1-27.66-4.57-56.2-4.6z" opacity=".06" fill="url(#d)"/>
    <path d="M20.4 35.62a1.82 1.82 0 0 0-1.95 1.66v30.9a2.14 2.14 0 0 0 2 2.26c28.33.16 55.8 7.76 55.8 3.88v-34c-.03-3.93-27.5-4.67-55.85-4.7z" opacity=".13" fill="url(#e)"/>
    <path d="M20.4 35.62a1.83 1.83 0 0 0-1.95 1.66v30.9a2.14 2.14 0 0 0 2 2.26c28.13.15 55.42 7.36 55.4 3.6v-33.5c-.02-3.84-27.3-4.87-55.45-4.92z" opacity=".2" fill="url(#f)"/>
    <path d="M20.4 35.62a1.83 1.83 0 0 0-1.95 1.66v30.9a2.14 2.14 0 0 0 2 2.26c27.93.15 55 7 55 3.34V40.7c-.02-3.7-27.1-5-55.05-5.08z" opacity=".25" fill="url(#g)"/>
    <path d="M20.4 35.62a1.83 1.83 0 0 0-1.95 1.66v30.9a2.12 2.12 0 0 0 2 2.25C48.14 70.6 75 77 75 73.52V40.86c0-3.58-26.85-5.16-54.6-5.24z" opacity=".3" fill="url(#h)"/>
    <path d="M20.4 35.62a1.84 1.84 0 0 0-1.95 1.66v30.9a2.12 2.12 0 0 0 2 2.25c27.53.14 54.23 6.17 54.22 2.8V41.02c-.03-3.44-26.67-5.3-54.27-5.4z" opacity=".38" fill="url(#i)"/>
    <path d="M20.4 35.62a1.83 1.83 0 0 0-1.95 1.66v30.9a2.12 2.12 0 0 0 2 2.25c27.33.13 53.83 5.77 53.82 2.54v-31.8c-.03-3.3-26.52-5.5-53.87-5.56z" opacity=".44" fill="url(#j)"/>
    <path d="M20.4 35.63a1.82 1.82 0 0 0-1.95 1.65v30.9a2.12 2.12 0 0 0 2 2.25c27.13.12 53.44 5.37 53.43 2.27V41.34c-.03-3.17-26.33-5.67-53.48-5.7z" opacity=".5" fill="url(#k)"/>
    <path d="M20.4 35.63a1.82 1.82 0 0 0-1.95 1.65v30.9a2.12 2.12 0 0 0 2 2.25c26.93.1 53 5 53 2V41.5c0-3.04-26.1-5.82-53.05-5.87z" opacity=".56" fill="url(#l)"/>
    <path d="M20.4 35.63a1.82 1.82 0 0 0-1.95 1.65v30.9a2.12 2.12 0 0 0 2 2.25c26.73.1 52.65 4.58 52.64 1.74v-30.5c-.03-2.92-25.94-6-52.7-6.04z" opacity=".63" fill="url(#m)"/>
    <path d="M20.4 35.63a1.81 1.81 0 0 0-1.95 1.65v30.9a2.12 2.12 0 0 0 2 2.25c26.53.1 52.25 4.18 52.24 1.47V41.83c-.03-2.78-25.7-6.14-52.3-6.2z" opacity=".7" fill="url(#n)"/>
    <path d="M20.4 35.63a1.81 1.81 0 0 0-1.95 1.65v30.9a2.12 2.12 0 0 0 2 2.25c26.33.1 51.86 3.78 51.84 1.2V42c-.02-2.65-25.54-6.3-51.9-6.36z" opacity=".75" fill="url(#o)"/>
    <path d="M20.4 35.63a1.82 1.82 0 0 0-1.95 1.65v30.9a2.12 2.12 0 0 0 2 2.25c26.13.08 51.46 3.38 51.45.93V42.15c-.03-2.52-25.34-6.45-51.5-6.52z" opacity=".8" fill="url(#p)"/>
    <path d="M20.4 35.63a1.82 1.82 0 0 0-1.95 1.65v30.9a2.12 2.12 0 0 0 2 2.25c25.93.07 51.06 3 51.05.66V42.32c-.03-2.4-25.14-6.6-51.1-6.7z" opacity=".88" fill="url(#q)"/>
    <path d="M20.4 35.63a1.82 1.82 0 0 0-1.95 1.65v30.9a2.12 2.12 0 0 0 2 2.25c25.73.06 50.67 2.58 50.66.4V42.48c-.03-2.26-24.95-6.77-50.7-6.85z" opacity=".94" fill="url(#r)"/>
    <path d="M20.4 35.63a1.82 1.82 0 0 0-1.95 1.65v30.9a2.12 2.12 0 0 0 2 2.25c25.53.1 50.28 2.18 50.26.13V42.64c-.02-2.12-24.7-6.78-50.3-7z" fill="url(#s)"/>
  </g>
  <path d="M18.45 68.2a2.13 2.13 0 0 0 1.94 2.26c25.58.18 50.28-1 50.28-4.83 0-11.62-52.22 2.57-52.22 2.57z" fill="url(#t)"/>
  <path d="M18.45 68.2a2.13 2.13 0 0 0 1.95 2.26c25.58.2 50.24-.6 50.27-4.83 0-11.62-52.22 2.57-52.22 2.57zm1.95 2.1h-.2a2 2 0 0 1-1.66-1.47 2 2 0 0 0 1.86 1.47c25.56-.16 49.87-8 49.87-4.56S46 70.48 20.4 70.3z" fill="url(#u)"/>
  <path d="M20.4 35.33a2 2 0 0 0-1.95 2V68.2a2 2 0 0 0 1.94 2c25.6-.2 50.3-8.7 50.28-4.57V30.8c.03-4.14-24.67 4.33-50.27 4.52z" fill="url(#v)"/>
  <path d="m24.18 56.66 2.68-.12 2.58-.17 2.48-.2 2.42-.23 2.35-.25 2.3-.27 2.27-.3 2.25-.3 2.23-.34 2.25-.35 2.26-.37 2.3-.4L54.9 53l4.87-.85 2.57-.4 2.75-.38a19.19 19.19 0 0 1 3.56-.19c1.12.07 2 .36 2 1.14v-2.73c0-.77-.85-1-1.9-1.13a17.79 17.79 0 0 0-3.34.14l-2.57.35-2.3.36-2.23.37-2.2.4-2.23.4-2.3.4-2.42.4-2.6.4-2.82.43v-2.67l2.83-.42 2.6-.4 2.42-.4 2.3-.4 2.23-.4 2.2-.38 2.23-.38 2.3-.36 2.57-.35a17.79 17.79 0 0 1 3.34-.14c1 .1 1.9.36 1.9 1.13v-2.7c0-.77-.85-1-1.9-1.14a18.68 18.68 0 0 0-3.34.14l-2.57.35-2.3.36-2.23.38-2.2.4-2.23.38-2.3.4-2.42.4-2.6.42-2.82.43v-2.68l2.82-.43 2.6-.4 2.42-.4 2.3-.4 2.23-.4 2.2-.4 2.23-.38 2.3-.36 2.57-.35a19.66 19.66 0 0 1 3.34-.14c1 .1 1.9.37 1.9 1.14v-2.65c0-.77-.85-1-1.9-1.13a17.79 17.79 0 0 0-3.34.14l-2.57.35-2.3.36-2.23.4-2.2.4-2.23.4-4.73.8-2.6.4-2.82.43V38.7l2.82-.43 2.6-.4 2.4-.4 2.3-.4 2.23-.4 2.2-.4 2.23-.37 2.3-.36 2.57-.35a17.79 17.79 0 0 1 3.34-.14c1 .08 1.9.36 1.9 1.13V33.5c0-.77-.85-1-1.9-1.13a17.79 17.79 0 0 0-3.34.14l-2.57.35-2.3.36-2.23.38-2.2.38-2.23.4-2.3.4-2.4.4-2.6.4-2.82.4v-2.7a170.19 170.19 0 0 1-23.36 2 2 2 0 0 0-1.95 2v19.5h2.93c.93 0 1.88-.1 2.8-.15z" fill="url(#b)"/>
  <path d="m24.17 62 2.7-.12 2.58-.17 2.48-.2 2.42-.23L36.7 61l2.3-.23 2.27-.3 2.25-.32 2.23-.34 2.25-.35 2.27-.36 2.3-.4 2.35-.4 4.87-.85 2.57-.4 2.75-.4a21.08 21.08 0 0 1 3.56-.19c1.12.08 2 .36 2 1.15v-2.68c0-.78-.9-1.07-2-1.15a21.08 21.08 0 0 0-3.56.21l-2.75.4-2.57.4-4.87.85-2.35.4-2.3.4-4.52.72-2.23.34-2.25.3-2.27.27-2.3.27-2.35.25-2.42.23-2.48.2-2.58.17-2.7.12-2.8.1h-2.93v2.68h2.93z" fill="url(#w)"/>
  <path d="M68.66 59.15a21.08 21.08 0 0 0-3.56.19l-2.75.4-2.56.4-2.48.43-2.4.42-4.64.8-2.27.37-2.25.35-2.23.34-2.25.32-2.27.3-2.3.27-2.35.28-2.42.23-2.48.2-2.58.16-2.7.13-2.8.08h-2.93v2.67h2.93l2.8-.1c.9-.1 1.8-.07 2.7-.12l2.58-.17 2.48-.2 2.42-.23 2.35-.25 2.3-.3 2.27-.3 2.25-.3 2.23-.34 2.25-.35 2.27-.37 4.64-.8 2.4-.42 2.48-.43 2.56-.4 2.75-.4a21.08 21.08 0 0 1 3.56-.19c1.12.07 2 .36 2 1.14V60.3c.01-.78-.88-1.06-2-1.14z" fill="url(#x)"/>
  <path d="m24 54 2.47-.1 2.35-.14 2.3-.18 2.3-.2 2.35-.24 2.46-.28 2.66-.33 2.9-.4V33.3a170.19 170.19 0 0 1-23.36 2 2 2 0 0 0-1.95 2v16.8h2.9z" fill="url(#y)"/>
  <path d="m24.48 36.12-.24.75h-.77l.62.43-.24.75.63-.48.62.43-.24-.73.62-.48h-.77z" fill="url(#z)"/>
  <path d="m26.7 45.36-.24.75h-.77l.63.43-.24.75.62-.5.63.42-.24-.72.62-.5-.77.05-.24-.7z" fill="url(#A)"/>
  <path d="m26.94 49.82-.24-.72-.24.75h-.77l.63.43-.24.75.62-.5.63.42-.24-.72.62-.5z" fill="url(#B)"/>
  <path d="m24.48 43.6-.24.75h-.77l.62.44-.24.75.63-.48.62.43-.24-.73.62-.5h-.77l-.23-.67z" fill="url(#C)"/>
  <path d="m24.48 47.33-.24.75h-.77l.62.44-.24.75.63-.5.62.44-.24-.73.62-.5h-.77z" fill="url(#D)"/>
  <path d="m24.48 39.86-.24.75h-.77l.62.44-.24.75.63-.48.62.43-.24-.73.62-.5h-.77z" fill="url(#E)"/>
  <path d="m31.16 48.78-.24.76-.77.07.62.4-.24.76.63-.5.62.4-.24-.72.63-.52-.78.07z" fill="url(#F)"/>
  <path d="m26.7 41.62-.24.76h-.77l.63.43-.24.76.62-.5.63.43-.24-.73.62-.5-.77.05-.24-.7z" fill="url(#G)"/>
  <path d="m28.93 47.1-.24.76h-.77l.63.42-.24.75.62-.5.63.4-.24-.72.62-.5-.77.06c-.1-.24-.17-.38-.24-.67z" fill="url(#H)"/>
  <path d="m29.17 51.55-.24-.72-.24.75-.77.06.63.4-.24.76.62-.5.63.4-.24-.72.62-.5z" fill="url(#I)"/>
  <path d="m26.7 37.88-.24.76h-.77l.63.42-.24.76.62-.5.63.42-.24-.73.62-.5h-.77a7.28 7.28 0 0 1-.24-.65z" fill="url(#J)"/>
  <path d="m28.93 43.35-.24.76h-.77l.63.42-.24.75.62-.5.63.42-.24-.73.62-.5-.77.06c-.1-.24-.17-.4-.24-.68z" fill="url(#K)"/>
  <path d="m24.7 51.8-.23-.73-.24.75h-.77l.62.43-.24.75.63-.48.62.44-.24-.74.62-.48z" fill="url(#L)"/>
  <path d="m20 43.72-.24.74H19l.62.45-.23.74.6-.45.62.45-.23-.74.62-.47h-.77c-.08-.28-.12-.44-.24-.72z" fill="url(#M)"/>
  <path d="m20 40-.24.74H19l.62.45-.23.74.62-.46.62.45-.23-.74.6-.48h-.77c-.07-.28-.1-.43-.23-.7z" fill="url(#N)"/>
  <path d="M20.26 51.93 20 51.2l-.24.74H19l.62.45-.23.75.62-.47.62.45-.23-.74.62-.46z" fill="url(#O)"/>
  <path d="m28.3 41.6.62-.5.63.4-.24-.73.62-.5-.77.06-.24-.73-.24.76-.77.05.63.42-.24.76z" fill="url(#P)"/>
  <path d="m28.3 37.86.62-.5.63.4-.24-.72.62-.5-.77.06-.24-.72-.24.75h-.77l.63.42-.24.8z" fill="url(#Q)"/>
  <path d="m20 47.45-.24.75H19l.62.46-.23.74.62-.46.62.44-.23-.73.62-.47h-.77l-.25-.73z" fill="url(#R)"/>
  <path d="m22.25 38.06-.24.75h-.77l.62.44-.23.75.62-.47.63.44-.24-.74.62-.48h-.77z" fill="url(#S)"/>
  <path d="m22.25 41.8-.24.75h-.77l.62.44-.23.75.62-.48.63.44-.24-.73.62-.48h-.77z" fill="url(#T)"/>
  <path d="m22.5 50-.24-.73L22 50h-.77l.62.45-.24.74.63-.47.62.44-.23-.74.62-.47z" fill="url(#U)"/>
  <path d="m22.25 45.54-.24.75h-.77l.62.45-.23.75.62-.48.62.44-.23-.73.62-.48h-.77c-.1-.24-.14-.4-.24-.7z" fill="url(#V)"/>
  <path d="m20 36.24-.24.74H19l.62.45-.23.75.62-.47.63.45-.24-.74.6-.42h-.77z" fill="url(#W)"/>
  <path d="m31.16 45.05-.24.76-.77.06.62.4-.24.76.63-.5.62.4-.24-.72.63-.52-.78.07z" fill="url(#X)"/>
  <use xlink:href="#Y" fill="url(#Z)"/>
  <use xlink:href="#Y" y="-3.75" fill="url(#aa)"/>
  <path d="m40.3 48.54-.24-.7-.24.77-.77.1.63.38-.24.77.62-.54.63.38-.24-.7.62-.54z" fill="url(#ab)"/>
  <path d="m37.83 38.76-.23.77-.77.1.62.38-.24.77.62-.53.63.38-.24-.7.62-.53-.77.1c-.07-.28-.14-.47-.24-.7z" fill="url(#ac)"/>
  <path d="m40.06 36.6-.24.78-.77.1.63.38-.24.77.62-.53.63.38-.24-.72.62-.54c-.3 0-.46.07-.77.1-.1-.32-.14-.42-.24-.7z" fill="url(#ad)"/>
  <path d="m37.83 35-.23.77-.77.1.62.38-.24.77.62-.53.63.4-.24-.72.62-.53-.77.1c-.07-.26-.14-.4-.24-.7z" fill="url(#ae)"/>
  <path d="m42.3 41.93-.24.77-.77.1.63.38-.24.77.62-.54.62.37-.23-.7.62-.55-.77.1-.24-.7z" fill="url(#af)"/>
  <path d="m42.3 38.2-.24.77-.77.1.63.37-.24.77.62-.54.63.37-.24-.7.62-.54-.77.1-.24-.7z" fill="url(#ag)"/>
  <path d="m42.53 50.1-.24-.7-.24.78-.77.1.62.37-.23.78.62-.55.62.38-.24-.7.63-.55z" fill="url(#ah)"/>
  <path d="m42.3 34.45-.23.77-.78.1.63.37-.24.77.62-.54.63.37-.24-.7.62-.54-.77.1-.24-.7z" fill="url(#ai)"/>
  <path d="m42.3 45.66-.24.78-.77.1.62.38-.23.77.62-.54.62.37-.23-.7.62-.55-.77.1-.24-.7z" fill="url(#aj)"/>
  <path d="m37.83 42.5-.23.77-.77.08.62.4-.24.77.62-.53.63.38-.24-.7.62-.53-.77.1c-.07-.3-.14-.43-.24-.7z" fill="url(#ak)"/>
  <use xlink:href="#al" fill="url(#am)"/>
  <path d="m33.38 46.7-.23.76-.78.07.63.4-.24.77.62-.52.63.4-.24-.72.62-.52-.77.08-.24-.72z" fill="url(#an)"/>
  <path d="m37.83 46.23-.23.77-.77.1.62.4-.24.77.62-.53.63.38-.24-.7.62-.54-.77.1c-.07-.3-.14-.43-.24-.72z" fill="url(#ao)"/>
  <path d="m33.38 39.23-.23.77-.78.07.63.4-.24.76.62-.5.63.4-.24-.72.62-.5-.77.07-.24-.72z" fill="url(#ap)"/>
  <path d="m33.38 50.45-.23.76-.78.07.63.4-.24.77.62-.52.63.4-.24-.72.62-.52-.77.07-.24-.7z" fill="url(#aq)"/>
  <use xlink:href="#al" y="3.73" fill="url(#am)"/>
  <path d="m33.38 35.5-.23.76-.78.07.63.4-.24.76.62-.5.63.4-.24-.7.63-.52-.78.07-.24-.7z" fill="url(#ar)"/>
  <path d="m33.38 43-.23.76-.78.08.63.4-.24.76.62-.52.63.4-.24-.72.62-.52-.77.08-.24-.72z" fill="url(#as)"/>
  <path d="m38.07 50.7-.24-.72-.23.77-.77.1.62.4-.24.77.62-.54.63.4-.24-.7.62-.54z" fill="url(#at)"/>
  <path d="m35.85 49.07-.24-.72-.24.77-.77.08.63.4-.24.77.62-.53.63.4-.24-.72.62-.53z" fill="url(#au)"/>
  <path d="m35.6 37.14-.24.77-.77.1.63.4-.24.77.62-.53.63.4-.24-.7.62-.53-.77.08-.24-.73z" fill="url(#av)"/>
  <path d="m35.6 44.62-.24.76-.77.08.63.4-.24.77.62-.52.63.4-.24-.72.62-.52-.77.08c-.1-.33-.14-.43-.24-.7z" fill="url(#aw)"/>
  <path d="m35.6 40.88-.24.76-.77.08.63.4-.24.76.62-.52.63.4-.24-.7.62-.53-.77.08-.24-.7z" fill="url(#ax)"/>
</svg>
