<svg xmlns="http://www.w3.org/2000/svg" data-name="Layer 1" viewBox="0 0 546.38 476.85">
  <defs>
    <linearGradient id="a" x1="6753.22" y1="4686.76" x2="7075.87" y2="4364.11" gradientTransform="rotate(-135 2693.396 3787.157)" gradientUnits="userSpaceOnUse">
      <stop offset=".09" stop-color="#6dc1d6"/>
      <stop offset=".31" stop-color="#72c6d7"/>
      <stop offset=".61" stop-color="#589ac5"/>
      <stop offset="1" stop-color="#3864af"/>
    </linearGradient>
    <linearGradient id="b" x1="1615.57" y1="507.76" x2="1615.57" y2="245.74" gradientTransform="scale(-1 1) rotate(-9.8 42.226 12345.341)" gradientUnits="userSpaceOnUse">
      <stop offset=".47" stop-color="#ffdf7f"/>
      <stop offset=".57" stop-color="#ffbe6b"/>
      <stop offset=".69" stop-color="#ff9e58"/>
      <stop offset=".8" stop-color="#ff884a"/>
      <stop offset=".91" stop-color="#ff7a42"/>
      <stop offset="1" stop-color="#ff753f"/>
    </linearGradient>
    <linearGradient id="c" x1="1376.02" y1="751.31" x2="1456.55" y2="839.58" gradientTransform="matrix(-.82 -.57 -.57 .82 2040.81 454.47)" gradientUnits="userSpaceOnUse">
      <stop offset=".01" stop-color="#e670a7"/>
      <stop offset=".12" stop-color="#cb65a2"/>
      <stop offset=".31" stop-color="#a2559b"/>
      <stop offset=".5" stop-color="#824895"/>
      <stop offset=".68" stop-color="#6c3f90"/>
      <stop offset=".85" stop-color="#5e3a8e"/>
      <stop offset="1" stop-color="#59388d"/>
    </linearGradient>
    <linearGradient id="d" x1="43.83" y1="419.1" x2="365.3" y2="233.5" gradientUnits="userSpaceOnUse">
      <stop offset="0" stop-color="#15adff"/>
      <stop offset=".06" stop-color="#40a3d4"/>
      <stop offset=".13" stop-color="#6d99a7"/>
      <stop offset=".21" stop-color="#949080"/>
      <stop offset=".3" stop-color="#b5885f"/>
      <stop offset=".38" stop-color="#d08244"/>
      <stop offset=".48" stop-color="#e57d2f"/>
      <stop offset=".59" stop-color="#f47a20"/>
      <stop offset=".72" stop-color="#fc7818"/>
      <stop offset=".92" stop-color="#ff7715"/>
    </linearGradient>
    <linearGradient id="e" x1="429.75" y1="83.88" x2="482.73" y2="8.36" gradientUnits="userSpaceOnUse">
      <stop offset="0" stop-color="#55398d"/>
      <stop offset="1" stop-color="#c05b9d"/>
    </linearGradient>
    <linearGradient id="f" x1="4795.56" y1="1877.4" x2="4793.86" y2="2240.75" gradientTransform="rotate(-90.27 1592.401 3448.974)" gradientUnits="userSpaceOnUse">
      <stop offset="0" stop-color="#a3d6d9"/>
      <stop offset=".52" stop-color="#34a4dd"/>
      <stop offset=".56" stop-color="#349dd8"/>
      <stop offset=".74" stop-color="#367ec2"/>
      <stop offset=".89" stop-color="#386bb4"/>
      <stop offset="1" stop-color="#3864af"/>
    </linearGradient>
  </defs>
  <path d="M446.91 237.65a5.31 5.31 0 0 1 4.38-2l.47-.16c.87-.67 1.77-1.31 2.68-1.93a229.19 229.19 0 0 0-63.09-118.13c-90-89.95-235.79-87.95-325.74 2s-80.95 239.79 9 329.74 226.79 84 316.74-6A231.32 231.32 0 0 0 418.83 408a122.32 122.32 0 0 1-7.61-16.66 130 130 0 0 1-7.75-49 89.65 89.65 0 0 1 1.69-33.34 5 5 0 0 1 1-2.05c.11-.5.21-1 .34-1.49a39.17 39.17 0 0 1 3.89-9.18 56.9 56.9 0 0 1 3.6-10.08 97.53 97.53 0 0 1 7.53-19c.77-1.51 1.62-3.08 2.55-4.68a4.71 4.71 0 0 1 1.62-2.69c5.31-8.56 12.58-17.38 21.22-22.18ZM322.29 372.08a132.66 132.66 0 1 1 0-187.61 132.66 132.66 0 0 1 0 187.61Z" transform="translate(0 -34.84)" fill="url(#a)"/>
  <path d="M476.35 160.72a48.83 48.83 0 1 1 38.14 89.79v.1a132.74 132.74 0 0 0-80.84 134.29l-96.61 8c-5.11-58.7 11.42-119.29 52.29-168a229.33 229.33 0 0 1 87.02-64.18Z" transform="translate(0 -34.84)" fill="url(#b)"/>
  <path d="m384.4 210 .11-.15a1.3 1.3 0 0 0 .1-.15 48.83 48.83 0 0 1 79.83 56.26c-15.13 20.31-19.39 37.57-20.31 50-1 13.9-.48 14.72-1.38 35.34-.69 15.92-5.31 29.63-9.24 36.95-11.59 21.56-58 21.12-87-6.63q-2.49-4.87-4.93-10.16-2.83-6.14-5.23-12c-.09-.32.31 1.42 0 0a19 19 0 0 1-.26-6.42c.14-1.48.14-1.48.39-5.46.54-8.73.83-18.45 4.25-33 .71-3.12 1.48-6.51 2.81-11.45 2.87-10.56 6.09-19.59 10.08-30.78.05-.01 14.31-42.35 30.78-62.35Z" transform="translate(0 -34.84)" fill="url(#c)"/>
  <path d="M14.63 200.43A230.75 230.75 0 0 0 .41 267.77c-.1 2.73-.23 5.45-.35 8.2a230.34 230.34 0 0 0 199.86 233.7c11 .41 35.14 2.94 58.77-.16 26.78-3.51 52.86-12.82 58.16-14.63q8.14-3.3 16.08-7.24c11.72-6.37 29.16-17.83 39.87-25.3 4.46-3.1 11.91-9.63 20.4-18.12a236.45 236.45 0 0 0 40.85-55.32 44.64 44.64 0 0 0 3.71-21.16c-1.82-23.35-23.31-44.12-45.32-45.62a48.81 48.81 0 0 0-45.1 23.25 180.82 180.82 0 0 1-17.59 21.14c-5.84 6-32.72 32.89-64.6 43C209.78 427.1 155 389.29 147.83 384.2c-28.69-15.97-133.2-183.77-133.2-183.77Z" transform="translate(0 -34.84)" fill="url(#d)"/>
  <circle cx="456.24" cy="46.12" r="46.12" fill="url(#e)"/>
  <path d="M335.72 358.68c-.13.19-.05-1.33-.31-1-25.22 34.12-61.17 46-67 47.84-1.76.55-20.51 6-39.09 6a132.66 132.66 0 1 1 127-168.93c.13.45 2.62 11.09 3.55 12.29 1-2.67 1.66-4 2.82-6.62s2.57-7 4.11-9.41a.25.25 0 0 1 0-.07l2.39-5.32s-.13-.25-1.45-5.79c-1.1-4.56-1.18-5.08-1.21-5.22-14.68-86-89.77-151.29-179.89-150.86A181.66 181.66 0 0 0 5.86 254.14c.51 109.18 99.32 181.24 182.51 180.8 82.68-.44 136.31-62.58 144.52-72.56" transform="translate(0 -34.84)" fill="url(#f)"/>
</svg>
