<svg xmlns="http://www.w3.org/2000/svg" viewBox="0 0 32 32">
  <defs>
    <clipPath id="a">
      <path d="M0 0h32v32H0z"/>
    </clipPath>
  </defs>
  <g data-name="Custom Size – 1" clip-path="url(#a)">
    <g transform="translate(-68 -161)">
      <circle data-name="Ellipse 1" cx="16" cy="16" r="16" transform="translate(68 161)" fill="#eb1a6b"/>
      <g data-name="om">
        <path data-name="Path 1" d="M87.102 180.072c.4.251.6.4.822.528a3.287 3.287 0 0 0 3.8.075 2.5 2.5 0 0 0 .623-3.117 2.869 2.869 0 0 0-3.146-1.86 3.08 3.08 0 0 0-1.785 1.006c-.907 1.156-1.219 2.64-2.721 3.419-.2.1-.142.679-.142 1.031.028 2.514-2.041 4.45-5.017 4.7-2.352.2-5.867-1.483-5.838-3.821a20.582 20.582 0 0 0 3.77 1.458 7.7 7.7 0 0 0 3.543-.2 2.544 2.544 0 0 0 1.956-2.766c-.17-.955-.6-1.207-2.778-1.534a41.503 41.503 0 0 1-.425-1.835c.227-.025.4-.075.567-.075.992-.075 2.069-.1 2.154-1.332a2.079 2.079 0 0 0-2.182-2.036 18.279 18.279 0 0 0-3.656 1.081c-.255-.352-.68-.93-1.077-1.508a5.3 5.3 0 0 1 6.632-.83c1.9 1.207 2.069 3.143.4 5.405.482.4.964.8 1.644 1.383.227-.6.34-1.031.51-1.433a8.018 8.018 0 0 1 .765-1.735 4.263 4.263 0 0 1 7.7.625 4.95 4.95 0 0 1 0 4.252 3.88 3.88 0 0 1-3.451 1.937 2.763 2.763 0 0 1-2.668-2.818Z"/>
        <path data-name="Path 2" d="M81.632 170.442a6.332 6.332 0 0 0 7.227-.025c.425.6.794 1.106 1.162 1.609-2.749 1.911-7.227.931-8.389-1.584Z"/>
        <path data-name="Path 3" d="M83.508 169.118c.468-.572.832-.988 1.274-1.508.52.546.858.91 1.274 1.378-.39.442-.754.832-1.222 1.326-.442-.39-.833-.754-1.326-1.196Z"/>
      </g>
    </g>
  </g>
</svg>
