<svg xmlns="http://www.w3.org/2000/svg" xmlns:xlink="http://www.w3.org/1999/xlink" width="32" height="32" viewBox="0 0 32 32">
  <defs>
    <clipPath id="clip-custom_1">
      <rect width="32" height="32"/>
    </clipPath>
  </defs>
  <g id="custom_1" data-name="custom – 1" clip-path="url(#clip-custom_1)">
    <circle id="Ellipse_1" data-name="Ellipse 1" cx="16" cy="16" r="16" fill="#4b85ee"/>
    <g id="okb" transform="translate(5 5)">
      <circle id="Oval" cx="5.208" cy="5.208" r="5.208" transform="translate(6.292)" fill="#fff"/>
      <circle id="Oval-Copy" cx="5.208" cy="5.208" r="5.208" transform="translate(6.292 12.585)" fill="#fff"/>
      <circle id="Oval-Copy-2" cx="5.208" cy="5.208" r="5.208" transform="translate(12.585 6.292)" fill="#fff"/>
      <circle id="Oval-Copy-3" cx="5.208" cy="5.208" r="5.208" transform="translate(0 6.292)" fill="#fff"/>
      <path id="Combined-Shape" d="M63.23,63.23A5.208,5.208,0,0,1,59.4,59.4,5.241,5.241,0,0,1,63.23,63.23Z" transform="translate(-52.956 -52.956)" fill="#a7c4f7"/>
      <path id="Combined-Shape-2" data-name="Combined-Shape" d="M59.3,121.23a5.208,5.208,0,0,1,3.83-3.83A5.241,5.241,0,0,1,59.3,121.23Z" transform="translate(-52.867 -104.663)" fill="#a7c4f7"/>
      <path id="Combined-Shape-3" data-name="Combined-Shape" d="M117.3,117.3a5.208,5.208,0,0,1,3.83,3.83A5.241,5.241,0,0,1,117.3,117.3Z" transform="translate(-104.574 -104.574)" fill="#a7c4f7"/>
      <path id="Combined-Shape-4" data-name="Combined-Shape" d="M121.23,59.3a5.208,5.208,0,0,1-3.83,3.83A5.241,5.241,0,0,1,121.23,59.3Z" transform="translate(-104.663 -52.866)" fill="#a7c4f7"/>
    </g>
  </g>
</svg>