<svg xmlns="http://www.w3.org/2000/svg" xmlns:xlink="http://www.w3.org/1999/xlink" width="32" height="32" viewBox="0 0 32 32">
  <defs>
    <clipPath id="clip-Custom_Size_1">
      <rect width="32" height="32"/>
    </clipPath>
  </defs>
  <g id="Custom_Size_1" data-name="Custom Size – 1" clip-path="url(#clip-Custom_Size_1)">
    <g id="Polkadot-dot">
      <circle id="Ellipse_1" data-name="Ellipse 1" cx="16" cy="16" r="16" fill="#e6007a"/>
    </g>
    <g id="Polkadot_symbol_white" transform="translate(-39.2 -28.7)">
      <g id="Group_1" data-name="Group 1" transform="translate(47.2 34.7)">
        <path id="Path_1" data-name="Path 1" d="M54.8,34.7a7.6,7.6,0,0,0-7.6,7.6,7.958,7.958,0,0,0,.4,2.472,1.061,1.061,0,1,0,2.009-.683,5.35,5.35,0,0,1-.3-1.949,5.487,5.487,0,1,1,5.807,5.626s-1.065.06-1.587.141c-.261.04-.462.08-.6.1a.081.081,0,0,1-.1-.1l.181-.884.985-4.541a1.048,1.048,0,1,0-2.05-.442s-2.371,11.051-2.391,11.172a1.048,1.048,0,0,0,2.05.442c.02-.121.342-1.587.342-1.587a2.669,2.669,0,0,1,2.25-2.09c.241-.04,1.186-.1,1.186-.1A7.6,7.6,0,0,0,54.8,34.7Zm.543,17.481a1.273,1.273,0,1,0,.985,1.507A1.265,1.265,0,0,0,55.338,52.181Z" transform="translate(-47.2 -34.7)" fill="#fff"/>
      </g>
    </g>
  </g>
</svg>