<svg xmlns="http://www.w3.org/2000/svg" viewBox="0 0 32 32">
  <defs>
    <clipPath id="a">
      <path d="M0 0h32v32H0z"/>
    </clipPath>
  </defs>
  <g data-name="custom – 1" clip-path="url(#a)">
    <circle data-name="Ellipse 1" cx="16" cy="16" r="16" fill="#4b85ee"/>
    <g transform="translate(5 5)">
      <circle cx="5.208" cy="5.208" r="5.208" transform="translate(6.292)" fill="#fff"/>
      <circle cx="5.208" cy="5.208" r="5.208" transform="translate(6.292 12.585)" fill="#fff"/>
      <circle cx="5.208" cy="5.208" r="5.208" transform="translate(12.585 6.292)" fill="#fff"/>
      <circle cx="5.208" cy="5.208" r="5.208" transform="translate(0 6.292)" fill="#fff"/>
      <path d="M10.274 10.274a5.208 5.208 0 0 1-3.83-3.83 5.241 5.241 0 0 1 3.83 3.83Z" fill="#a7c4f7"/>
      <path data-name="Combined-Shape" d="M6.433 16.567a5.208 5.208 0 0 1 3.83-3.83 5.241 5.241 0 0 1-3.83 3.83ZM12.726 12.726a5.208 5.208 0 0 1 3.83 3.83 5.241 5.241 0 0 1-3.83-3.83ZM16.567 6.434a5.208 5.208 0 0 1-3.83 3.83 5.241 5.241 0 0 1 3.83-3.83Z" fill="#a7c4f7"/>
    </g>
  </g>
</svg>
