<svg xmlns="http://www.w3.org/2000/svg" xmlns:xlink="http://www.w3.org/1999/xlink" viewBox="0 0 32 32">
  <defs>
    <linearGradient id="a" x1=".5" y1=".095" x2=".5" y2="1.095" gradientUnits="objectBoundingBox">
      <stop offset="0" stop-color="#05aac5"/>
      <stop offset="1" stop-color="#71e0ec"/>
    </linearGradient>
    <linearGradient id="c" x1=".5" y1=".043" x2=".5" y2="1.043" xlink:href="#a"/>
    <linearGradient id="d" x1=".5" y1=".007" x2=".5" y2="1.007" xlink:href="#a"/>
    <clipPath id="b">
      <path d="M0 0h32v32H0z"/>
    </clipPath>
  </defs>
  <g data-name="Custom Size – 1" clip-path="url(#b)">
    <path data-name="Path 2" d="M16 32A16 16 0 1 0 0 16a15.994 15.994 0 0 0 16 16Z"/>
    <g data-name="serum">
      <path data-name="Path 3" d="M53.312 48.115A5.915 5.915 0 0 1 47.4 42.2c0-3.172 5.352-8.773 5.579-9.008l.28-.3.288.288c.235.235 5.677 5.836 5.677 9.008a5.917 5.917 0 0 1-5.912 5.92Zm-.045-14.072c-.469.507-1.453 1.6-2.43 2.892-1.733 2.286-2.649 4.1-2.649 5.261a5.125 5.125 0 1 0 10.249 0c0-1.158-.931-2.975-2.695-5.261a42.257 42.257 0 0 0-2.475-2.892Z" transform="translate(-36.812 -25.41)" fill="url(#a)"/>
      <path data-name="Path 4" d="M30.2 34.965a7.813 7.813 0 0 1-7.8-7.8c0-4.209 5.874-10.083 6.124-10.325a.4.4 0 1 1 .56.56c-.061.061-5.889 5.889-5.889 9.765a7.017 7.017 0 1 0 14.034 0c0-1.59-1.029-3.785-2.982-6.366a37.084 37.084 0 0 0-3.02-3.49.4.4 0 0 1 .56-.56c.257.25 6.237 6.2 6.237 10.416a7.836 7.836 0 0 1-7.82 7.8Z" transform="translate(-13.704 -10.367)" fill="url(#c)"/>
      <path data-name="Path 5" d="M9.5 21.5A9.511 9.511 0 0 1 0 12c0-2.165 1.09-4.829 3.232-7.91A35.181 35.181 0 0 1 6.434.132.4.4 0 1 1 7 .685a35.384 35.384 0 0 0-3.124 3.868C1.855 7.452.787 10.026.787 12a8.713 8.713 0 1 0 17.425 0c0-1.976-1.075-4.549-3.111-7.449A35.5 35.5 0 0 0 11.945.685a.4.4 0 1 1 .568-.553C12.778.4 19 6.87 19 12a9.511 9.511 0 0 1-9.5 9.5Z" transform="translate(7 4.988)" fill="url(#d)"/>
    </g>
  </g>
</svg>
