<svg xmlns="http://www.w3.org/2000/svg" data-name="Layer 1" viewBox="0 0 124.37 124.37">
  <defs>
    <linearGradient id="a" x1="7.05" y1="48.07" x2="13.57" y2="60.3" gradientTransform="matrix(1 0 0 -1 0 126)" gradientUnits="userSpaceOnUse">
      <stop offset="0" stop-color="#93966f"/>
      <stop offset="1" stop-color="#9c8476"/>
    </linearGradient>
    <linearGradient id="b" x1="38.85" y1="40.21" x2="27.54" y2="29.52" gradientTransform="matrix(1 0 0 -1 0 126)" gradientUnits="userSpaceOnUse">
      <stop offset="0" stop-color="#c27e64"/>
      <stop offset="1" stop-color="#cd8d56"/>
    </linearGradient>
    <linearGradient id="c" x1="19.89" y1="21.52" x2="-.19" y2="1.82" gradientTransform="matrix(1 0 0 -1 0 126)" gradientUnits="userSpaceOnUse">
      <stop offset="0" stop-color="#d7974e"/>
      <stop offset="1" stop-color="#f5ae3d"/>
    </linearGradient>
    <linearGradient id="d" x1="56.2" y1="37.81" x2="47.5" y2="31.19" gradientTransform="matrix(1 0 0 -1 0 126)" gradientUnits="userSpaceOnUse">
      <stop offset="0" stop-color="#cb7365"/>
      <stop offset="1" stop-color="#d57d56"/>
    </linearGradient>
    <linearGradient id="e" x1="22.09" y1="122.62" x2="40.74" y2="108.94" gradientTransform="matrix(1 0 0 -1 0 126)" gradientUnits="userSpaceOnUse">
      <stop offset="0" stop-color="#3658ca"/>
      <stop offset="1" stop-color="#6b59b8"/>
    </linearGradient>
    <linearGradient id="f" x1="22.38" y1="4.75" x2="40.59" y2="19.08" gradientTransform="matrix(1 0 0 -1 0 126)" gradientUnits="userSpaceOnUse">
      <stop offset="0" stop-color="#f99f36"/>
      <stop offset="1" stop-color="#dc8a4c"/>
    </linearGradient>
    <linearGradient id="g" x1="6.34" y1="80.96" x2="12.64" y2="68.99" gradientTransform="matrix(1 0 0 -1 0 126)" gradientUnits="userSpaceOnUse">
      <stop offset="0" stop-color="#668a87"/>
      <stop offset="1" stop-color="#847c88"/>
    </linearGradient>
    <linearGradient id="h" x1="19.89" y1="106.11" x2="-.19" y2="125.81" gradientTransform="matrix(1 0 0 -1 0 126)" gradientUnits="userSpaceOnUse">
      <stop offset="0" stop-color="#4a69b0"/>
      <stop offset="1" stop-color="#056ebd"/>
    </linearGradient>
    <linearGradient id="i" x1="17.03" y1="41.76" x2="2.31" y2="23.75" gradientTransform="matrix(1 0 0 -1 0 126)" gradientUnits="userSpaceOnUse">
      <stop offset="0" stop-color="#b78d63"/>
      <stop offset="1" stop-color="#c5a256"/>
    </linearGradient>
    <linearGradient id="j" x1="87.54" y1="58.36" x2="94.59" y2="49.21" gradientTransform="matrix(1 0 0 -1 0 126)" gradientUnits="userSpaceOnUse">
      <stop offset="0" stop-color="#d75080"/>
      <stop offset="1" stop-color="#e34b76"/>
    </linearGradient>
    <linearGradient id="k" x1="87.86" y1="69.62" x2="95.09" y2="79.11" gradientTransform="matrix(1 0 0 -1 0 126)" gradientUnits="userSpaceOnUse">
      <stop offset="0" stop-color="#cf4794"/>
      <stop offset="1" stop-color="#d739a3"/>
    </linearGradient>
    <linearGradient id="l" x1="47.42" y1="96.02" x2="56.71" y2="89.85" gradientTransform="matrix(1 0 0 -1 0 126)" gradientUnits="userSpaceOnUse">
      <stop offset="0" stop-color="#8554b2"/>
      <stop offset="1" stop-color="#9c55a5"/>
    </linearGradient>
    <linearGradient id="m" x1="85.74" y1="87.61" x2="96.83" y2="98.1" gradientTransform="matrix(1 0 0 -1 0 126)" gradientUnits="userSpaceOnUse">
      <stop offset="0" stop-color="#c43cae"/>
      <stop offset="1" stop-color="#cd2cc3"/>
    </linearGradient>
    <linearGradient id="n" x1="46.67" y1="118.86" x2="58.69" y2="112.65" gradientTransform="matrix(1 0 0 -1 0 126)" gradientUnits="userSpaceOnUse">
      <stop offset="0" stop-color="#6344d6"/>
      <stop offset="1" stop-color="#874abf"/>
    </linearGradient>
    <linearGradient id="o" x1="67.4" y1="38.27" x2="76.04" y2="31.93" gradientTransform="matrix(1 0 0 -1 0 126)" gradientUnits="userSpaceOnUse">
      <stop offset="0" stop-color="#d66766"/>
      <stop offset="1" stop-color="#e26a55"/>
    </linearGradient>
    <linearGradient id="p" x1="67.16" y1="89.28" x2="76.15" y2="95.68" gradientTransform="matrix(1 0 0 -1 0 126)" gradientUnits="userSpaceOnUse">
      <stop offset="0" stop-color="#ad4aa9"/>
      <stop offset="1" stop-color="#ad3ebb"/>
    </linearGradient>
    <linearGradient id="q" x1="2.58" y1="104.15" x2="17.13" y2="85.12" gradientTransform="matrix(1 0 0 -1 0 126)" gradientUnits="userSpaceOnUse">
      <stop offset="0" stop-color="#307ca3"/>
      <stop offset="1" stop-color="#6a739a"/>
    </linearGradient>
    <linearGradient id="r" x1="106.94" y1="42.37" x2="121.71" y2="24.08" gradientTransform="matrix(1 0 0 -1 0 126)" gradientUnits="userSpaceOnUse">
      <stop offset="0" stop-color="#ea4c68"/>
      <stop offset="1" stop-color="#f44752"/>
    </linearGradient>
    <linearGradient id="s" x1="83.66" y1="108.97" x2="102.77" y2="122.96" gradientTransform="matrix(1 0 0 -1 0 126)" gradientUnits="userSpaceOnUse">
      <stop offset="0" stop-color="#b930cc"/>
      <stop offset="1" stop-color="#ce15f2"/>
    </linearGradient>
    <linearGradient id="t" x1="124.56" y1="1.82" x2="104.48" y2="21.52" gradientTransform="matrix(1 0 0 -1 0 126)" gradientUnits="userSpaceOnUse">
      <stop offset="0" stop-color="#f15829"/>
      <stop offset="1" stop-color="#ef5948"/>
    </linearGradient>
    <linearGradient id="u" x1="84.33" y1="18.6" x2="102.49" y2="4.41" gradientTransform="matrix(1 0 0 -1 0 126)" gradientUnits="userSpaceOnUse">
      <stop offset="0" stop-color="#ea674a"/>
      <stop offset="1" stop-color="#f26a28"/>
    </linearGradient>
    <linearGradient id="v" x1="85.52" y1="40.21" x2="96.83" y2="29.52" gradientTransform="matrix(1 0 0 -1 0 126)" gradientUnits="userSpaceOnUse">
      <stop offset="0" stop-color="#e15a68"/>
      <stop offset="1" stop-color="#eb5a55"/>
    </linearGradient>
    <linearGradient id="w" x1="124.56" y1="125.81" x2="104.48" y2="106.11" gradientTransform="matrix(1 0 0 -1 0 126)" gradientUnits="userSpaceOnUse">
      <stop offset="0" stop-color="#f902fd"/>
      <stop offset="1" stop-color="#da1fd4"/>
    </linearGradient>
    <linearGradient id="x" x1="121.8" y1="104.15" x2="107.24" y2="85.12" gradientTransform="matrix(1 0 0 -1 0 126)" gradientUnits="userSpaceOnUse">
      <stop offset="0" stop-color="#fc11d5"/>
      <stop offset="1" stop-color="#de2ab7"/>
    </linearGradient>
    <linearGradient id="y" x1="118.16" y1="81.18" x2="111.73" y2="69" gradientTransform="matrix(1 0 0 -1 0 126)" gradientUnits="userSpaceOnUse">
      <stop offset="0" stop-color="#f922aa"/>
      <stop offset="1" stop-color="#e2369d"/>
    </linearGradient>
    <linearGradient id="z" x1="111.01" y1="60.25" x2="117.25" y2="47.96" gradientTransform="matrix(1 0 0 -1 0 126)" gradientUnits="userSpaceOnUse">
      <stop offset="0" stop-color="#e64183"/>
      <stop offset="1" stop-color="#f63777"/>
    </linearGradient>
    <linearGradient id="A" x1="46.16" y1="8.01" x2="58.1" y2="15.14" gradientTransform="matrix(1 0 0 -1 0 126)" gradientUnits="userSpaceOnUse">
      <stop offset="0" stop-color="#f68c31"/>
      <stop offset="1" stop-color="#d77c4e"/>
    </linearGradient>
    <linearGradient id="B" x1="36.89" y1="58.34" x2="29.78" y2="49.29" gradientTransform="matrix(1 0 0 -1 0 126)" gradientUnits="userSpaceOnUse">
      <stop offset="0" stop-color="#ac757a"/>
      <stop offset="1" stop-color="#ac8270"/>
    </linearGradient>
    <linearGradient id="C" x1="27.54" y1="98.1" x2="38.81" y2="87.44" gradientTransform="matrix(1 0 0 -1 0 126)" gradientUnits="userSpaceOnUse">
      <stop offset="0" stop-color="#6466aa"/>
      <stop offset="1" stop-color="#8563a1"/>
    </linearGradient>
    <linearGradient id="D" x1="29.39" y1="78.98" x2="36.29" y2="69.88" gradientTransform="matrix(1 0 0 -1 0 126)" gradientUnits="userSpaceOnUse">
      <stop offset="0" stop-color="#857390"/>
      <stop offset="1" stop-color="#986c8d"/>
    </linearGradient>
    <linearGradient id="E" x1="77.89" y1="8.54" x2="65.9" y2="15" gradientTransform="matrix(1 0 0 -1 0 126)" gradientUnits="userSpaceOnUse">
      <stop offset="0" stop-color="#f47b2c"/>
      <stop offset="1" stop-color="#e5744a"/>
    </linearGradient>
    <linearGradient id="F" x1="78.24" y1="119.3" x2="66.25" y2="112.79" gradientTransform="matrix(1 0 0 -1 0 126)" gradientUnits="userSpaceOnUse">
      <stop offset="0" stop-color="#952ee3"/>
      <stop offset="1" stop-color="#9d3fc3"/>
    </linearGradient>
  </defs>
  <path d="M17.29 69h2.41v2.87L2.41 76.36H0v-2.87Z" fill="url(#a)"/>
  <path d="M27.84 94.28v2.52h2.54l8.17-8.8v-2.52H36Z" fill="url(#b)"/>
  <path d="M0 121.85v2.52h2.53l17.18-17.56v-2.52h-2.53Z" fill="url(#c)"/>
  <path d="m51.63 96.8 4-8.88v-2.44H53l-4 8.88v2.44h2.62Z" fill="url(#d)"/>
  <path d="M38.53 20.08V17.6L26.39 0h-2.57v2.49L36 20.08h2.57Z" fill="url(#e)"/>
  <path d="M23.82 121.88v2.48h2.57l12.14-17.59v-2.48H36Z" fill="url(#f)"/>
  <path d="M0 48v2.87l17.29 4.52h2.41v-2.84L2.41 48H0Z" fill="url(#g)"/>
  <path d="M0 0v2.52l17.18 17.56h2.53v-2.52L2.53 0H0Z" fill="url(#h)"/>
  <path d="M0 98v2.56h2.49L19.71 88v-2.52h-2.49Z" fill="url(#i)"/>
  <path d="M96.85 76.16v-2.6L88.29 69h-2.47v2.6l8.56 4.59h2.46Z" fill="url(#j)"/>
  <path d="M96.85 50.82v-2.6h-2.47l-8.56 4.59v2.6h2.46Z" fill="url(#k)"/>
  <path d="M49 27.58V30l4 8.88h2.62v-2.42l-4-8.88H49Z" fill="url(#l)"/>
  <path d="M96.53 30.1v-2.52H94l-8.17 8.81v2.52h2.54Z" fill="url(#m)"/>
  <path d="M72.34 51.6h-3.82v3.82h3.82V51.6Z" fill="#be5095"/>
  <path d="M55.84 20.08v-2.4L51.61 0h-2.87v2.41L53 20.08h2.87Z" fill="url(#n)"/>
  <path d="M68.72 85.48v2.45l4 8.88h2.62v-2.46l-4-8.88h-2.62Z" fill="url(#o)"/>
  <path d="M75.36 27.58h-2.62l-4 8.88v2.45h2.62l4-8.88v-2.45Z" fill="url(#p)"/>
  <path d="M0 23.82v2.56L17.22 38.9h2.49v-2.56L2.49 23.82H0Z" fill="url(#q)"/>
  <path d="M104.66 85.48V88l17.22 12.52h2.49V98l-17.21-12.52h-2.49Z" fill="url(#r)"/>
  <path d="M85.84 17.6v2.48h2.57l12.14-17.59V0H98Z" fill="url(#s)"/>
  <path d="M104.66 104.29v2.52l17.18 17.56h2.53v-2.52l-17.18-17.56h-2.53Z" fill="url(#t)"/>
  <path d="M85.84 104.29v2.48L98 124.36h2.57v-2.48l-12.16-17.59h-2.57Z" fill="url(#u)"/>
  <path d="M96.53 96.8v-2.52l-8.17-8.81h-2.54V88L94 96.8h2.54Z" fill="url(#v)"/>
  <path d="m121.84 0-17.18 17.56v2.52h2.53l17.18-17.56V0h-2.53Z" fill="url(#w)"/>
  <path d="M104.66 36.34v2.56h2.49l17.22-12.52v-2.56h-2.49Z" fill="url(#x)"/>
  <path d="M104.66 52.55v2.87h2.41l17.29-4.52V48H122Z" fill="url(#y)"/>
  <path d="M104.66 69v2.87L122 76.36h2.41v-2.87L107.08 69h-2.41Z" fill="url(#z)"/>
  <path d="M48.74 122v2.41h2.87l4.22-17.68v-2.41H53Z" fill="url(#A)"/>
  <path d="M27.52 73.56v2.6H30l8.56-4.59V69h-2.48Z" fill="url(#B)"/>
  <path d="M27.84 27.58v2.52L36 38.91h2.54v-2.52l-8.17-8.81h-2.53Z" fill="url(#C)"/>
  <path d="M52 72.79h3.82V69H52v3.82Z" fill="#bd687b"/>
  <path d="M27.52 48.23v2.6l8.56 4.59h2.46v-2.6L30 48.23h-2.48Z" fill="url(#D)"/>
  <path d="M68.54 104.29v2.41l4.22 17.68h2.87V122l-4.22-17.68h-2.87Z" fill="url(#E)"/>
  <path d="M68.54 17.68v2.41h2.87l4.23-17.68V0h-2.88Z" fill="url(#F)"/>
  <path d="M52 55.41h3.82V51.6H52v3.82Z" fill="#ac5e90"/>
  <path d="M72.34 69h-3.82v3.82h3.82V69Z" fill="#c85c7f"/>
</svg>
