<svg xmlns="http://www.w3.org/2000/svg" data-name="Layer 1" viewBox="0 0 29 32.9">
  <g data-name="Image-/-BlockCATLogo">
    <path fill="#ccc" d="m0 24.8 14.5 8.1V18.8L0 10.7v14.1z"/>
    <path fill="#f2f2f2" d="m0 10.7 14.5 8.1L29 10.7 14.5 2.6 0 10.7z"/>
    <path fill="#e6e6e6" d="M14.5 18.8v14.1L29 24.8V10.7l-14.5 8.1z"/>
    <path fill="#686868" d="m17.4 17.2-2.9 1.6-2.9-1.6h5.8z"/>
    <path fill="#383838" d="m14.5 21.7 2.9-4.5-2.9 1.6v2.9z"/>
    <path d="m14.5 21.7-2.9-4.5 2.9 1.6v2.9z"/>
    <path fill="#f2f2f2" d="M0 0v10.7l11.5 1.2L0 0zm29 0L19 10.3l10 .4V0z"/>
    <path fill="#383838" d="M26.8 5.3 24.2 8l2.6 1.5V5.3zm-24.6.2 2.5 2.6-2.5 1.4v-4z"/>
  </g>
</svg>
