<svg xmlns="http://www.w3.org/2000/svg" xmlns:xlink="http://www.w3.org/1999/xlink" width="32" height="32" viewBox="0 0 32 32">
  <defs>
    <clipPath id="clip-Custom_Size_1">
      <rect width="32" height="32"/>
    </clipPath>
  </defs>
  <g id="Custom_Size_1" data-name="Custom Size – 1" clip-path="url(#clip-Custom_Size_1)">
    <circle id="Ellipse_1" data-name="Ellipse 1" cx="16" cy="16" r="16" fill="#fcedf4"/>
    <g id="logo" transform="translate(5.001 5)">
      <path id="Path_1" data-name="Path 1" d="M64.39,43.566c-.238-.034-.248-.045-.135-.056a3.724,3.724,0,0,1,1.061.091,4.562,4.562,0,0,1,2.323,1.558l.2.238.294-.045a6.3,6.3,0,0,1,3.612.452,4.679,4.679,0,0,1,.813.474,1.091,1.091,0,0,1,.079.317,1.914,1.914,0,0,1-.125,1.23.33.33,0,0,0-.034.361.34.34,0,0,0,.305.192c.271,0,.553-.429.688-1.027l.056-.238.106.113a4.445,4.445,0,0,1,1.095,2.168l.022.169-.106-.147a1.906,1.906,0,0,0-.542-.575,3.39,3.39,0,0,0-1.862-.395,7.631,7.631,0,0,1-2.066-.317c-.926-.305-1.4-.7-2.495-2.156a10.377,10.377,0,0,0-1.095-1.287,3.829,3.829,0,0,0-2.2-1.119Z" transform="translate(-56.944 -38.588)" fill="#ff007a"/>
      <path id="Path_2" data-name="Path 2" d="M128.518,47.661a2.44,2.44,0,0,1,.2-.971.779.779,0,0,1,.106-.192c.012,0-.012.079-.045.169a2.156,2.156,0,0,0-.045.994c.079.508.113.575.655,1.129.248.26.542.587.655.722l.192.248-.192-.181a6.873,6.873,0,0,0-.9-.712c-.079-.045-.091-.045-.147.012s-.056.113-.056.44a2.419,2.419,0,0,1-.248,1.152c-.091.169-.106.135-.022-.056a1.645,1.645,0,0,0,.068-.7c0-.982-.113-1.219-.8-1.614a6.944,6.944,0,0,0-.633-.327,2.5,2.5,0,0,1-.305-.147,5.043,5.043,0,0,1,.95.282c.395.158.462.169.508.158C128.485,48.035,128.508,47.945,128.518,47.661Z" transform="translate(-112.662 -41.251)" fill="#ff007a"/>
      <path id="Path_3" data-name="Path 3" d="M64.438,50.764a3.989,3.989,0,0,1-.712-2.428l.022-.238.113.022a2.649,2.649,0,0,1,.722.271c.452.271.655.643.845,1.569.056.271.135.587.169.688a4.076,4.076,0,0,0,.452.813c.125.181.045.271-.238.248A2.313,2.313,0,0,1,64.438,50.764Z" transform="translate(-56.528 -42.67)" fill="#ff007a"/>
      <path id="Path_4" data-name="Path 4" d="M111.625,88.853c-2.235-.9-3.025-1.682-3.025-3,0-.192.012-.349.012-.349a2.122,2.122,0,0,1,.192.147,4.513,4.513,0,0,0,2.37.722,9.832,9.832,0,0,1,1.727.361,3.3,3.3,0,0,1,2.416,2.63,4.565,4.565,0,0,1-.068,1.412,2.829,2.829,0,0,1-.361.813c-.012,0-.034-.056-.034-.147a1.837,1.837,0,0,0-.655-1.275,9.02,9.02,0,0,0-2.575-1.31Z" transform="translate(-96.344 -75.848)" fill="#ff007a"/>
      <path id="Path_5" data-name="Path 5" d="M83.689,113.443a2.674,2.674,0,0,0-.113-.474l-.056-.169.106.125a1.987,1.987,0,0,1,.361.655,1.41,1.41,0,0,1,.079.633,1.44,1.44,0,0,1-.079.609,2.043,2.043,0,0,1-.474.756,2.716,2.716,0,0,1-1.689.745c-.135.012-.519.045-.858.068a6.622,6.622,0,0,0-1.919.317c-.068.022-.135.045-.147.034a2.557,2.557,0,0,1,.609-.361,6.143,6.143,0,0,1,1.689-.452,7.735,7.735,0,0,0,1.005-.2A1.951,1.951,0,0,0,83.689,113.443Z" transform="translate(-69.989 -100.066)" fill="#ff007a"/>
      <path id="Path_6" data-name="Path 6" d="M128.251,119.342a2.64,2.64,0,0,1-.2-1.829c.022-.056.045-.113.068-.113a.486.486,0,0,1,.158.079c.135.091.422.248,1.14.643a5.766,5.766,0,0,1,1.795,1.321,2.792,2.792,0,0,1,.6,1.366,4.478,4.478,0,0,1-.056,1.343,3.328,3.328,0,0,1-1.637,2.168,1.567,1.567,0,0,1-.238.113.9.9,0,0,1,.106-.248,2.24,2.24,0,0,0,.106-1.749,7.187,7.187,0,0,0-.9-1.626,10.724,10.724,0,0,1-.935-1.468Z" transform="translate(-113.524 -104.147)" fill="#ff007a"/>
      <path id="Path_7" data-name="Path 7" d="M54.137,154.251a6.137,6.137,0,0,1,2.811-1.355,4.182,4.182,0,0,1,1.456.056,2.514,2.514,0,0,1,1.422.914,3.371,3.371,0,0,1,.519,1.535c.045.305.106.621.113.688a1.515,1.515,0,0,0,.5.892,1.718,1.718,0,0,0,1.558.045.759.759,0,0,1,.192-.056,1.73,1.73,0,0,1-.486.327,1.6,1.6,0,0,1-.813.192,1.63,1.63,0,0,1-1.373-.845,6.348,6.348,0,0,1-.373-.745,2.714,2.714,0,0,0-1.061-1.49,1.391,1.391,0,0,0-1.321-.125.85.85,0,0,0-.294,1.321,1.154,1.154,0,0,0,.643.339.688.688,0,0,0,.779-.688.541.541,0,0,0-.373-.553c-.361-.158-.756.022-.745.373a.31.31,0,0,0,.211.305c.091.045.091.045.022.034a.422.422,0,0,1-.147-.734.812.812,0,0,1,1.208.26,1.182,1.182,0,0,1,.022.768,1.056,1.056,0,0,1-1.287.609,1.841,1.841,0,0,1-.982-.666,3,3,0,0,0-2.224-1.14l-.211-.034Z" transform="translate(-47.819 -135.601)" fill="#ff007a"/>
      <path id="Path_8" data-name="Path 8" d="M.38.486C3.01,3.681,7.063,8.647,7.266,8.918c.169.226.106.44-.181.6a1.727,1.727,0,0,1-.643.181A.815.815,0,0,1,5.9,9.46c-.106-.106-.542-.745-1.535-2.291C3.608,5.983,2.965,5,2.956,4.99A18.064,18.064,0,0,0,4.286,7.428,19.761,19.761,0,0,1,5.437,9.6c0,.147-.045.226-.226.429a2.512,2.512,0,0,0-.542,1.524,4.723,4.723,0,0,1-1.291,2.6,4.645,4.645,0,0,0-.712,1.005,1.909,1.909,0,0,0-.226.9,2.824,2.824,0,0,0,.147,1.106,3.771,3.771,0,0,0,.542,1.061,2.627,2.627,0,0,1,.422.825c0,.091.022.091.429,0A4.465,4.465,0,0,0,6.2,17.964a1.021,1.021,0,0,0,.339-.858.921.921,0,0,0-.079-.474,2.026,2.026,0,0,0-.79-.768,1.784,1.784,0,0,1-.936-1.208A2.124,2.124,0,0,1,5.075,13.3a4.049,4.049,0,0,0,.5-1.783c.034-.474.091-.666.226-.813a.845.845,0,0,1,.622-.265,2.069,2.069,0,0,0,1.242-.508,1.056,1.056,0,0,0,.384-.825l.012-.26L7.91,8.691C7.379,8.083.03,0,0,0S.165.211.38.486ZM3.845,16.534a.466.466,0,0,0-.147-.621c-.192-.125-.486-.068-.486.106a.115.115,0,0,0,.091.113c.106.056.113.113.034.238s-.079.238.022.317a.323.323,0,0,0,.486-.148Z" transform="translate(0)" fill="#ff007a" fill-rule="evenodd"/>
      <path id="Path_9" data-name="Path 9" d="M69.634,93.683a1,1,0,0,0-.609.666.972.972,0,0,0,.056.609c.125.158.238.2.553.2.621,0,1.152-.271,1.208-.6a.873.873,0,0,0-.508-.813,1.148,1.148,0,0,0-.7-.067Zm.722.565a.254.254,0,0,0-.113-.384c-.305-.192-.768-.034-.768.26,0,.147.238.305.462.305a.624.624,0,0,0,.414-.182Z" transform="translate(-61.211 -83.083)" fill="#ff007a" fill-rule="evenodd"/>
    </g>
  </g>
</svg>