<svg xmlns="http://www.w3.org/2000/svg" data-name="Layer 1" viewBox="0 0 67.2 65.76">
  <defs>
    <clipPath transform="translate(1.19 .76)">
      <path fill="none" clip-rule="evenodd" d="M0 0h64v64H0V0z"/>
    </clipPath>
    <clipPath transform="translate(1.19 .76)">
      <path fill="none" d="M0 0h64v64H0z"/>
    </clipPath>
  </defs>
  <path d="m38.24 11.55-3.48 2V30.3l1.9 1.08V18.61l6.53 3.7 1.26.72 1.06-.6v-1l-8.84-5v-1.78l1.58-.9 9.16 5.2v4.63l-4.4 2.48-.15-.07a1.86 1.86 0 0 0-.82-.2 1.91 1.91 0 0 0-1.91 1.97 1.91 1.91 0 0 0 1.9 1.92 1.9 1.9 0 0 0 1.88-1.73v-.17l4.44-2.51 4.12 2.34v10.33l-4.12 2.34-16.74-9.52V13.53l-3.48-2-11.05 6.31v5.73L12 26.45v12.6l5.08 2.89v5.74l11.05 6.28 3.48-2V35.18l-1.9-1.08v12.81l-7.79-4.42-1.06.6v1l8.84 5v1.77l-1.58.9-9.16-5.2v-4.64l4.4-2.48.15.07a1.85 1.85 0 0 0 .82.2 1.91 1.91 0 0 0 1.92-1.95 1.91 1.91 0 0 0-1.9-1.92 1.9 1.9 0 0 0-1.88 1.73v.17l-4.44 2.51-4.11-2.34V27.58l4.12-2.34 16.73 9.52v17.23l3.48 2 11.06-6.28v-5.76l5.08-2.88v-12.6l-5.08-2.89v-5.74l-11.07-6.29Zm-19.26 7.41 9.16-5.2 1.58.9v1.74l-10.74 6.09v-3.53Zm1 5.18 9.75-5.53v11.07l-9.75-5.54Zm16.7 11.7 9.75 5.54-9.75 5.53V35.84Zm0 15v-1.72l10.74-6.09v3.53l-9.18 5.2-1.58-.9Z" fill-rule="evenodd"/>
  <path d="m38.24 11.55-3.48 2V30.3l1.9 1.08V18.61l6.53 3.7 1.26.72 1.06-.6v-1l-8.84-5v-1.78l1.58-.9 9.16 5.2v4.63l-4.4 2.48-.15-.07a1.86 1.86 0 0 0-.82-.2 1.91 1.91 0 0 0-1.91 1.97 1.91 1.91 0 0 0 1.9 1.92 1.9 1.9 0 0 0 1.88-1.73v-.17l4.44-2.51 4.12 2.34v10.33l-4.12 2.34-16.74-9.52V13.53l-3.48-2-11.05 6.31v5.73L12 26.45v12.6l5.08 2.89v5.74l11.05 6.28 3.48-2V35.18l-1.9-1.08v12.81l-7.79-4.42-1.06.6v1l8.84 5v1.77l-1.58.9-9.16-5.2v-4.64l4.4-2.48.15.07a1.85 1.85 0 0 0 .82.2 1.91 1.91 0 0 0 1.92-1.95 1.91 1.91 0 0 0-1.9-1.92 1.9 1.9 0 0 0-1.88 1.73v.17l-4.44 2.51-4.11-2.34V27.58l4.12-2.34 16.73 9.52v17.23l3.48 2 11.06-6.28v-5.76l5.08-2.88v-12.6l-5.08-2.89v-5.74l-11.07-6.29Zm-19.26 7.41 9.16-5.2 1.58.9v1.74l-10.74 6.09v-3.53Zm1 5.18 9.75-5.53v11.07l-9.75-5.54Zm16.7 11.7 9.75 5.54-9.75 5.53V35.84Zm0 15v-1.72l10.74-6.09v3.53l-9.18 5.2-1.58-.9Z" fill="#fff" fill-rule="evenodd"/>
</svg>
