<svg xmlns="http://www.w3.org/2000/svg" xmlns:xlink="http://www.w3.org/1999/xlink" width="32" height="32" viewBox="0 0 32 32">
  <defs>
    <clipPath id="clip-Custom_Size_1">
      <rect width="32" height="32"/>
    </clipPath>
  </defs>
  <g id="Custom_Size_1" data-name="Custom Size – 1" clip-path="url(#clip-Custom_Size_1)">
    <g id="algo">
      <circle id="Ellipse_1" data-name="Ellipse 1" cx="16" cy="16" r="16"/>
    </g>
    <path id="algorand" d="M3.3,19.067l2.758-4.775L8.811,9.534l2.741-4.775L12.005,4l.2.757L13.048,7.9l-.942,1.631L9.349,14.292,6.608,19.067H9.9l2.758-4.775L14.09,11.82l.673,2.472,1.278,4.775H19l-1.278-4.775L16.444,9.534l-.336-1.227,2.051-3.548H15.166l-.1-.353L14.023.5,13.888,0H11.013l-.067.1L8.256,4.758,5.5,9.534,2.758,14.292,0,19.067Z" transform="translate(6 5)" fill="#fff"/>
  </g>
</svg>