<svg xmlns="http://www.w3.org/2000/svg" xmlns:xlink="http://www.w3.org/1999/xlink" width="32" height="32" viewBox="0 0 32 32">
  <defs>
    <clipPath id="clip-Custom_Size_1">
      <rect width="32" height="32"/>
    </clipPath>
  </defs>
  <g id="Custom_Size_1" data-name="Custom Size – 1" clip-path="url(#clip-Custom_Size_1)">
    <g id="icon-celo-CELO-color-f">
      <circle id="Ellipse_1" data-name="Ellipse 1" cx="16" cy="16" r="16" fill="#fbcc5c"/>
      <g id="Group_1" data-name="Group 1" transform="translate(6.56 6.56)">
        <path id="Path_2" data-name="Path 2" d="M39.348,28.02a7.513,7.513,0,0,0-14.4-3.008A7.511,7.511,0,1,0,34.9,34.868,7.4,7.4,0,0,0,39.348,28.02Zm-6.3,4.96a4.711,4.711,0,0,1-1.152.128A5.1,5.1,0,0,1,26.8,28.02a4.055,4.055,0,0,1,.128-1.088,4.711,4.711,0,0,1,1.152-.128,5.08,5.08,0,0,1,5.088,5.088C33.14,32.276,33.108,32.628,33.044,32.98Zm-10.08-1.088a5.126,5.126,0,0,1,1.408-3.52A7.544,7.544,0,0,0,31.6,35.54a5.069,5.069,0,0,1-8.64-3.648Zm12.608-.352a7.544,7.544,0,0,0-7.232-7.168,5.069,5.069,0,0,1,8.64,3.616A5.388,5.388,0,0,1,35.572,31.54Z" transform="translate(-20.5 -20.5)" fill="#f9b73e"/>
        <path id="Path_3" data-name="Path 3" d="M39.84,28.7a7.2,7.2,0,0,0-13.856-2.752,7.2,7.2,0,1,0,9.472,9.376A7.266,7.266,0,0,0,39.84,28.7ZM28.8,37.98a5.4,5.4,0,0,1-3.36-9.632V28.7a7.211,7.211,0,0,0,7.2,7.2h.448A5.462,5.462,0,0,1,28.8,37.98Zm5.248-4.064a5.157,5.157,0,0,1-1.408.192A5.422,5.422,0,0,1,27.232,28.7a4.548,4.548,0,0,1,.192-1.344,5.157,5.157,0,0,1,1.408-.192,5.422,5.422,0,0,1,5.408,5.408A8.491,8.491,0,0,1,34.048,33.916ZM36,32.924v-.352a7.211,7.211,0,0,0-7.2-7.2h-.448a5.353,5.353,0,0,1,4.256-2.08A5.416,5.416,0,0,1,36,32.924Z" transform="translate(-21.248 -21.18)" fill="#fff"/>
      </g>
    </g>
  </g>
</svg>