<svg xmlns="http://www.w3.org/2000/svg" xmlns:xlink="http://www.w3.org/1999/xlink" width="32" height="32" viewBox="0 0 32 32">
  <defs>
    <clipPath id="clip-Custom_Size_1">
      <rect width="32" height="32"/>
    </clipPath>
  </defs>
  <g id="Custom_Size_1" data-name="Custom Size – 1" clip-path="url(#clip-Custom_Size_1)">
    <g id="near">
      <path id="Path_2" data-name="Path 2" d="M16,32A16,16,0,1,0,0,16,15.994,15.994,0,0,0,16,32Z"/>
      <path id="Path_3" data-name="Path 3" d="M66.545,54.519,63.2,59.49a.35.35,0,0,0,.521.461l3.289-2.858a.135.135,0,0,1,.223.1v8.945a.138.138,0,0,1-.238.089L57.049,54.325a1.705,1.705,0,0,0-1.295-.61h-.342A1.712,1.712,0,0,0,53.7,55.427V68.018a1.712,1.712,0,0,0,1.712,1.712h0a1.717,1.717,0,0,0,1.459-.819l3.349-4.971a.35.35,0,0,0-.521-.461l-3.289,2.858a.135.135,0,0,1-.223-.1v-8.96a.138.138,0,0,1,.238-.089L66.366,69.09a1.705,1.705,0,0,0,1.295.61H68a1.712,1.712,0,0,0,1.712-1.712V55.412A1.712,1.712,0,0,0,68,53.7h0A1.752,1.752,0,0,0,66.545,54.519Z" transform="translate(-45.707 -45.707)" fill="#fff"/>
    </g>
  </g>
</svg>