<svg xmlns="http://www.w3.org/2000/svg" viewBox="0 0 32 32">
  <defs>
    <clipPath id="a">
      <path d="M0 0h32v32H0z"/>
    </clipPath>
  </defs>
  <g data-name="Custom Size – 1" clip-path="url(#a)">
    <path data-name="Path 2" d="M16 32A16 16 0 1 0 0 16a15.994 15.994 0 0 0 16 16Z"/>
    <path data-name="Path 3" d="m20.838 8.812-3.345 4.971a.35.35 0 0 0 .521.461l3.289-2.858a.135.135 0 0 1 .223.1v8.945a.138.138 0 0 1-.238.089L11.342 8.618a1.705 1.705 0 0 0-1.295-.61h-.342A1.712 1.712 0 0 0 7.993 9.72v12.591a1.712 1.712 0 0 0 1.712 1.712 1.717 1.717 0 0 0 1.459-.819l3.349-4.971a.35.35 0 0 0-.521-.461l-3.289 2.858a.135.135 0 0 1-.223-.1v-8.96a.138.138 0 0 1 .238-.089l9.941 11.902a1.705 1.705 0 0 0 1.295.61h.339a1.712 1.712 0 0 0 1.712-1.712V9.705a1.712 1.712 0 0 0-1.712-1.712 1.752 1.752 0 0 0-1.455.819Z" fill="#fff"/>
  </g>
</svg>
