<svg xmlns="http://www.w3.org/2000/svg" viewBox="0 0 200 200">
  <style>
    .st0{fill:#f9d85e}
  </style>
  <path fill="none" id="canvas_background" d="M-1-1h582v402H-1z"/>
  <g stroke="null" id="Symbol_x5F_luna">
    <path stroke="null" id="svg_1" d="M109.589 124.987c-43.45-19.423-70.56-58.859-72.149-98.544-.066-1.67-2.062-2.51-3.31-1.406C13.128 43.513-.06 70.649.19 100.873c.447 53.812 44.133 97.98 97.958 99.004 43.463.828 80.739-26.098 95.292-64.233.578-1.511-.762-3.062-2.325-2.667-25.31 6.36-54.22 4.218-81.526-7.99z" class="st0"/>
    <path stroke="null" id="svg_2" d="M198.182 82.016a9.699 9.699 0 0 1-.106-.605 96.362 96.362 0 0 0-1.996-8.502c-.04-.131-.066-.25-.105-.381a82.168 82.168 0 0 0-1.235-3.982c-.04-.105-.065-.197-.105-.302a99.323 99.323 0 0 0-3.1-8.068c-.026-.053-.052-.119-.078-.171a81.536 81.536 0 0 0-1.747-3.772c-.013-.04-.04-.065-.053-.105-.63-1.275-1.287-2.55-1.957-3.785-.013-.039-.04-.065-.052-.105a82.613 82.613 0 0 0-2.18-3.771c-.027-.04-.04-.066-.066-.105a113.586 113.586 0 0 0-2.154-3.39c-.08-.132-.171-.25-.25-.382a95.97 95.97 0 0 0-4.952-6.767l-.315-.395a99.282 99.282 0 0 0-2.85-3.377l-.013-.013a92.1 92.1 0 0 0-2.877-3.127l-.118-.119a87.615 87.615 0 0 0-2.706-2.707c-.131-.131-.262-.25-.394-.38a136.933 136.933 0 0 0-2.876-2.642l-.342-.302c-.998-.868-2.01-1.722-3.034-2.55-.092-.079-.197-.144-.289-.223a105.82 105.82 0 0 0-3.323-2.55.23.23 0 0 1-.066-.052 126.233 126.233 0 0 0-3.467-2.431c-.013-.013-.026-.026-.04-.026a99.23 99.23 0 0 0-7.276-4.416l-.276-.158a103.962 103.962 0 0 0-3.612-1.879l-.473-.236a100.283 100.283 0 0 0-7.789-3.39c-.157-.053-.302-.119-.46-.171a86.597 86.597 0 0 0-4.163-1.472c-.026-.013-.053-.013-.079-.027a92.217 92.217 0 0 0-3.953-1.208c-.119-.04-.237-.066-.355-.106a120.31 120.31 0 0 0-4.282-1.103c-.026 0-.052-.014-.079-.014a104.817 104.817 0 0 0-4.137-.867c-.092-.013-.184-.026-.263-.052-1.445-.263-2.903-.5-4.374-.71h-.039a99.962 99.962 0 0 0-6.909-.71c.394.027.762.066 1.156.105.92.08 1.8.171 2.666.276h.013c.854.106 1.695.21 2.51.329h.039c.8.118 1.589.236 2.35.368.027 0 .04.013.066.013.75.131 1.485.276 2.194.42.026.014.066.014.092.027.696.144 1.379.302 2.049.473.04.013.092.026.131.04.644.157 1.274.341 1.892.512.052.013.105.04.17.052.591.184 1.182.368 1.747.565l.197.08c.552.196 1.077.394 1.603.604.078.04.157.065.236.105.5.21.985.42 1.458.644.092.052.184.092.289.144.447.224.893.447 1.327.67.118.066.223.132.328.198.407.223.801.46 1.182.696.131.079.25.171.38.25.356.236.71.46 1.052.71.157.105.302.236.446.341.302.223.618.46.907.697.183.144.354.315.538.46.25.223.5.433.749.657.236.223.46.446.683.67.184.184.354.355.538.525.394.42.775.855 1.156 1.288.552.657 3.389 4.284 4.926 10.631 1.852 7.648 1.536 15.612 3.283 23.273.29 1.288.604 2.55.933 3.785.092.328.184.657.263.972.262.96.525 1.892.8 2.812.08.29.171.565.263.841 8.998 28.99 26.992 42.76 51.147 61.21a100.187 100.187 0 0 0 1.247-15.86 101.68 101.68 0 0 0-1.641-17.977z" fill="#ef7730"/>
    <path stroke="null" id="svg_3" d="M198.865 86.208c-3.534-8.16-3.534-8.16-98.208-42.38C52.992 26.6 44.152 9.964 78.643 2.448a93.647 93.647 0 0 1 5.084-.96A101.418 101.418 0 0 1 99.935.187c50.476-.013 92.192 37.412 98.93 86.02" class="st0"/>
  </g>
</svg>
