<svg xmlns="http://www.w3.org/2000/svg" viewBox="0 0 32 32">
  <defs>
    <clipPath id="a">
      <path d="M0 0h32v32H0z"/>
    </clipPath>
  </defs>
  <g data-name="Custom Size – 1" clip-path="url(#a)">
    <circle data-name="Ellipse 1" cx="16" cy="16" r="16" fill="#39e0f7"/>
    <path data-name="Path 2" d="M18.324 9.318a.74.74 0 1 0 0-1.479h-3.355a.837.837 0 0 0-.837.837v9.626a2.926 2.926 0 1 0 1.515-.009v-5.84h1.973a.74.74 0 1 0 0-1.479h-1.973V9.318Zm-1.8 11.87a1.617 1.617 0 1 1-1.616-1.656 1.635 1.635 0 0 1 1.616 1.657Z" fill="#fff"/>
  </g>
</svg>
