<svg xmlns="http://www.w3.org/2000/svg" xmlns:xlink="http://www.w3.org/1999/xlink" width="32" height="32" viewBox="0 0 32 32">
  <defs>
    <clipPath id="clip-Custom_Size_1">
      <rect width="32" height="32"/>
    </clipPath>
  </defs>
  <g id="Custom_Size_1" data-name="Custom Size – 1" clip-path="url(#clip-Custom_Size_1)">
    <g id="Logo">
      <g id="stormx-mark-circular">
        <circle id="Oval" cx="16" cy="16" r="16" fill="#fd2e53"/>
        <g id="mark" transform="translate(6.08 7.2)">
          <g id="Group_1" data-name="Group 1">
            <path id="Combined-Shape" d="M5.245,0l5.728,6.687a3.245,3.245,0,0,1,0,4.227L5.245,17.6H0l6.332-7.391a2.164,2.164,0,0,0,0-2.818L0,0Zm9.993,13.73,4.754,3.87H13.44l-2.95-3.585,2.83-.71A2.194,2.194,0,0,1,15.238,13.73ZM19.992,0,15.238,3.87A2.2,2.2,0,0,1,13.32,4.3l-2.83-.71L13.44,0Z" fill="#fff"/>
          </g>
        </g>
      </g>
    </g>
  </g>
</svg>