<svg xmlns="http://www.w3.org/2000/svg" xmlns:xlink="http://www.w3.org/1999/xlink" id="Layer_1" data-name="Layer 1" viewBox="0 0 546.38 476.85"><defs><style>.cls-1{fill:url(#linear-gradient);}.cls-2{fill:url(#linear-gradient-2);}.cls-3{fill:url(#linear-gradient-3);}.cls-4{fill:url(#linear-gradient-4);}.cls-5{fill:url(#linear-gradient-5);}.cls-6{fill:url(#linear-gradient-6);}</style><linearGradient id="linear-gradient" x1="6753.22" y1="4686.76" x2="7075.87" y2="4364.11" gradientTransform="translate(1919.99 8369.6) rotate(-135)" gradientUnits="userSpaceOnUse"><stop offset="0.09" stop-color="#6dc1d6"/><stop offset="0.31" stop-color="#72c6d7"/><stop offset="0.61" stop-color="#589ac5"/><stop offset="1" stop-color="#3864af"/></linearGradient><linearGradient id="linear-gradient-2" x1="1615.57" y1="507.76" x2="1615.57" y2="245.74" gradientTransform="matrix(-0.98, -0.17, -0.17, 0.98, 2098.09, 187.86)" gradientUnits="userSpaceOnUse"><stop offset="0.47" stop-color="#ffdf7f"/><stop offset="0.57" stop-color="#ffbe6b"/><stop offset="0.69" stop-color="#ff9e58"/><stop offset="0.8" stop-color="#ff884a"/><stop offset="0.91" stop-color="#ff7a42"/><stop offset="1" stop-color="#ff753f"/></linearGradient><linearGradient id="linear-gradient-3" x1="1376.02" y1="751.31" x2="1456.55" y2="839.58" gradientTransform="matrix(-0.82, -0.57, -0.57, 0.82, 2040.81, 454.47)" gradientUnits="userSpaceOnUse"><stop offset="0.01" stop-color="#e670a7"/><stop offset="0.12" stop-color="#cb65a2"/><stop offset="0.31" stop-color="#a2559b"/><stop offset="0.5" stop-color="#824895"/><stop offset="0.68" stop-color="#6c3f90"/><stop offset="0.85" stop-color="#5e3a8e"/><stop offset="1" stop-color="#59388d"/></linearGradient><linearGradient id="linear-gradient-4" x1="43.83" y1="419.1" x2="365.3" y2="233.5" gradientUnits="userSpaceOnUse"><stop offset="0" stop-color="#15adff"/><stop offset="0.06" stop-color="#40a3d4"/><stop offset="0.13" stop-color="#6d99a7"/><stop offset="0.21" stop-color="#949080"/><stop offset="0.3" stop-color="#b5885f"/><stop offset="0.38" stop-color="#d08244"/><stop offset="0.48" stop-color="#e57d2f"/><stop offset="0.59" stop-color="#f47a20"/><stop offset="0.72" stop-color="#fc7818"/><stop offset="0.92" stop-color="#ff7715"/></linearGradient><linearGradient id="linear-gradient-5" x1="429.75" y1="83.88" x2="482.73" y2="8.36" gradientUnits="userSpaceOnUse"><stop offset="0" stop-color="#55398d"/><stop offset="1" stop-color="#c05b9d"/></linearGradient><linearGradient id="linear-gradient-6" x1="4795.56" y1="1877.4" x2="4793.86" y2="2240.75" gradientTransform="translate(-1849.03 5057.61) rotate(-90.27)" gradientUnits="userSpaceOnUse"><stop offset="0" stop-color="#a3d6d9"/><stop offset="0.52" stop-color="#34a4dd"/><stop offset="0.56" stop-color="#349dd8"/><stop offset="0.74" stop-color="#367ec2"/><stop offset="0.89" stop-color="#386bb4"/><stop offset="1" stop-color="#3864af"/></linearGradient></defs><title>Orion_Logo v4_wo_text</title><path class="cls-1" d="M446.91,237.65a5.31,5.31,0,0,1,4.38-2l.47-.16c.87-.67,1.77-1.31,2.68-1.93a229.19,229.19,0,0,0-63.09-118.13c-90-89.95-235.79-87.95-325.74,2s-80.95,239.79,9,329.74,226.79,84,316.74-6A231.32,231.32,0,0,0,418.83,408a122.32,122.32,0,0,1-7.61-16.66,130,130,0,0,1-7.75-49A89.65,89.65,0,0,1,405.16,309a5,5,0,0,1,1-2.05c.11-.5.21-1,.34-1.49a39.17,39.17,0,0,1,3.89-9.18,56.9,56.9,0,0,1,3.6-10.08,97.53,97.53,0,0,1,7.53-19c.77-1.51,1.62-3.08,2.55-4.68a4.71,4.71,0,0,1,1.62-2.69C431,251.27,438.27,242.45,446.91,237.65ZM322.29,372.08a132.66,132.66,0,1,1,0-187.61A132.66,132.66,0,0,1,322.29,372.08Z" transform="translate(0 -34.84)"/><path class="cls-2" d="M476.35,160.72l0,0a48.83,48.83,0,1,1,38.14,89.79l0,.1a132.74,132.74,0,0,0-80.84,134.29l-96.61,8c-5.11-58.7,11.42-119.29,52.29-168A229.33,229.33,0,0,1,476.35,160.72Z" transform="translate(0 -34.84)"/><path class="cls-3" d="M384.4,210l.11-.15a1.3,1.3,0,0,0,.1-.15h0a48.83,48.83,0,0,1,79.83,56.26h0c-15.13,20.31-19.39,37.57-20.31,50-1,13.9-.48,14.72-1.38,35.34-.69,15.92-5.31,29.63-9.24,36.95-11.59,21.56-58,21.12-87-6.63q-2.49-4.87-4.93-10.16-2.83-6.14-5.23-12c-.09-.32.31,1.42,0,0a19,19,0,0,1-.26-6.42c.14-1.48.14-1.48.39-5.46.54-8.73.83-18.45,4.25-33h0c.71-3.12,1.48-6.51,2.81-11.45,2.87-10.56,6.09-19.59,10.08-30.78C353.67,272.34,367.93,230,384.4,210Z" transform="translate(0 -34.84)"/><path class="cls-4" d="M14.63,200.43A230.75,230.75,0,0,0,.41,267.77c-.1,2.73-.23,5.45-.35,8.2a230.34,230.34,0,0,0,199.86,233.7c11,.41,35.14,2.94,58.77-.16,26.78-3.51,52.86-12.82,58.16-14.63q8.14-3.3,16.08-7.24c11.72-6.37,29.16-17.83,39.87-25.3,4.46-3.1,11.91-9.63,20.4-18.12a236.45,236.45,0,0,0,40.85-55.32,44.64,44.64,0,0,0,3.71-21.16c-1.82-23.35-23.31-44.12-45.32-45.62a48.81,48.81,0,0,0-45.1,23.25l0,0a180.82,180.82,0,0,1-17.59,21.14c-5.84,6-32.72,32.89-64.6,43C209.78,427.1,155,389.29,147.83,384.2,119.14,368.23,14.63,200.43,14.63,200.43Z" transform="translate(0 -34.84)"/><circle class="cls-5" cx="456.24" cy="46.12" r="46.12"/><path class="cls-6" d="M335.72,358.68c-.13.19-.05-1.33-.31-1-25.22,34.12-61.17,46-67,47.84-1.76.55-20.51,6-39.09,6a132.66,132.66,0,1,1,127-168.93c.13.45,2.62,11.09,3.55,12.29,1-2.67,1.66-4,2.82-6.62s2.57-7,4.11-9.41a.25.25,0,0,1,0-.07l2.39-5.32s-.13-.25-1.45-5.79c-1.1-4.56-1.18-5.08-1.21-5.22-14.68-86-89.77-151.29-179.89-150.86A181.66,181.66,0,0,0,5.86,254.14c.51,109.18,99.32,181.24,182.51,180.8,82.68-.44,136.31-62.58,144.52-72.56" transform="translate(0 -34.84)"/></svg>