<svg xmlns="http://www.w3.org/2000/svg" xmlns:xlink="http://www.w3.org/1999/xlink" width="32" height="32" viewBox="0 0 32 32">
  <defs>
    <clipPath id="clip-Custom_Size_1">
      <rect width="32" height="32"/>
    </clipPath>
  </defs>
  <g id="Custom_Size_1" data-name="Custom Size – 1" clip-path="url(#clip-Custom_Size_1)">
    <g id="fusd">
      <path id="ic_wallet_22_fusdt-a" d="M16,0A16,16,0,1,1,0,16,16,16,0,0,1,16,0ZM26.24,9.6H17.28A1.28,1.28,0,0,0,16,10.88a1.28,1.28,0,0,1-1.28,1.28H5.76V22.4h8.96A1.28,1.28,0,0,0,16,21.12a1.28,1.28,0,0,1,1.28-1.28h8.96ZM16,12.8,19.2,16,16,19.2,12.805,16Z" fill="#00ef8b" fill-rule="evenodd"/>
    </g>
  </g>
</svg>