<svg xmlns="http://www.w3.org/2000/svg" viewBox="0 0 32 32">
  <defs>
    <clipPath id="a">
      <path d="M0 0h32v32H0z"/>
    </clipPath>
  </defs>
  <g data-name="Custom Size – 1" clip-path="url(#a)">
    <circle cx="16" cy="16" r="16" fill="#fd2e53"/>
    <path d="m11.325 7.2 5.728 6.687a3.245 3.245 0 0 1 0 4.227L11.325 24.8H6.08l6.332-7.391a2.164 2.164 0 0 0 0-2.818L6.08 7.2Zm9.993 13.73 4.754 3.87H19.52l-2.95-3.585 2.83-.71a2.194 2.194 0 0 1 1.918.425ZM26.072 7.2l-4.754 3.87a2.2 2.2 0 0 1-1.918.43l-2.83-.71 2.95-3.59Z" fill="#fff" data-name="Group 1"/>
  </g>
</svg>
